<?xml version="1.0" standalone="no"?><!DOCTYPE svg PUBLIC "-//W3C//DTD SVG 1.1//EN" "http://www.w3.org/Graphics/SVG/1.1/DTD/svg11.dtd"><svg height="366" node-id="1" sillyvg="true" template-height="1366" template-width="1366" version="1.1" viewBox="0 0 1366 1366" width="366" xmlns="http://www.w3.org/2000/svg" xmlns:xlink="http://www.w3.org/1999/xlink"><defs node-id="54"><clipPath id="clip0_1_162" node-id="51"><path d="M 0.00 0.00 L 1365.30 0.00 L 1365.30 1365.30 L 0.00 1365.30 Z" fill="#000000" fill-rule="nonzero" node-id="57" stroke="none" target-height="1365.3" target-width="1365.3" target-x="0" target-y="0"></path></clipPath></defs><g clip-path="url(#clip0_1_162)" id="sillyvg_g_0" node-id="61"><path d="M 0.00 0.00 L 1365.30 0.00 L 1365.30 1365.30 L 0.00 1365.30 L 0.00 0.00 Z M 652.80 174.20 L 649.60 181.00 L 648.50 184.70 L 647.40 190.30 L 646.90 196.00 L 647.00 201.70 L 647.50 207.30 L 648.60 213.40 L 650.20 219.40 L 652.40 225.10 L 654.90 230.80 L 660.80 241.60 L 655.10 238.70 L 649.70 235.30 L 644.60 231.50 L 639.90 227.30 L 635.40 222.70 L 627.50 212.70 L 623.90 207.40 L 616.60 195.30 L 613.70 192.30 L 610.50 191.10 L 607.30 191.20 L 603.90 192.90 L 602.20 194.60 L 600.90 196.60 L 600.10 198.80 L 598.70 203.90 L 597.70 209.00 L 597.00 219.50 L 597.70 230.00 L 598.60 235.20 L 601.10 245.40 L 603.10 251.20 L 605.50 256.90 L 608.40 262.40 L 611.60 267.60 L 615.30 272.60 L 619.30 277.30 L 623.70 281.60 L 628.50 285.50 L 633.60 289.00 L 625.20 289.80 L 616.80 290.00 L 596.20 289.10 L 594.30 289.30 L 592.50 289.80 L 591.00 290.70 L 588.90 293.30 L 588.10 296.60 L 588.60 300.00 L 589.40 301.50 L 590.60 302.70 L 596.20 307.30 L 607.90 315.60 L 614.10 319.20 L 620.50 322.60 L 627.10 325.60 L 633.80 328.20 L 640.70 330.40 L 635.80 335.80 L 631.40 341.60 L 627.50 347.60 L 624.00 353.90 L 621.00 360.40 L 618.40 367.10 L 614.10 380.90 L 612.50 388.00 L 610.70 398.80 L 609.40 409.40 L 605.90 395.10 L 603.20 388.00 L 600.20 383.30 L 598.20 381.40 L 595.00 379.60 L 593.20 379.20 L 575.00 377.50 L 556.70 377.00 L 547.60 377.40 L 538.50 378.20 L 530.60 379.30 L 523.00 381.50 L 518.30 383.90 L 516.20 385.50 L 513.30 389.80 L 511.30 396.00 L 509.20 407.60 L 407.10 370.50 L 399.10 368.20 L 390.80 367.40 L 382.60 368.10 L 378.60 369.10 L 374.70 370.50 L 370.90 372.30 L 366.80 374.80 L 362.90 377.80 L 359.50 381.10 L 353.40 388.60 L 350.80 392.80 L 347.40 399.20 L 344.50 405.80 L 341.80 413.30 L 339.50 420.80 L 337.70 428.40 L 336.30 436.20 L 335.30 444.00 L 334.70 451.90 L 334.50 459.70 L 334.70 467.60 L 335.30 475.50 L 336.40 483.30 L 337.80 491.00 L 339.70 498.60 L 343.30 509.00 L 348.00 519.00 L 350.80 523.70 L 354.00 528.10 L 357.50 532.30 L 361.40 536.20 L 365.70 539.70 L 369.50 542.20 L 373.50 544.30 L 377.70 545.90 L 382.10 547.10 L 386.50 547.90 L 391.10 548.10 L 395.60 547.90 L 400.00 547.10 L 420.10 541.20 L 468.90 528.90 L 470.90 537.80 L 473.30 546.50 L 476.40 555.10 L 480.00 563.40 L 484.10 571.50 L 488.70 579.30 L 493.80 586.80 L 499.30 594.00 L 505.60 601.30 L 512.40 608.20 L 526.70 621.10 L 440.20 853.60 L 328.50 1156.20 L 251.90 1156.20 L 248.70 1156.40 L 245.70 1157.40 L 243.50 1159.80 L 242.70 1163.00 L 243.10 1166.10 L 244.80 1168.80 L 246.20 1169.80 L 248.90 1170.60 L 251.70 1170.90 L 632.00 1171.00 L 649.30 1170.90 L 666.60 1170.40 L 1114.80 1170.80 L 1116.50 1170.60 L 1118.00 1170.10 L 1120.50 1168.00 L 1121.90 1165.10 L 1122.10 1163.50 L 1121.30 1160.30 L 1119.30 1157.90 L 1115.80 1156.50 L 1001.00 1156.30 L 1004.80 1132.60 L 1007.60 1108.70 L 1009.50 1086.60 L 1010.80 1064.50 L 1011.70 1042.30 L 1012.00 1020.20 L 1011.80 998.00 L 1011.10 975.90 L 1009.80 951.40 L 1008.10 926.90 L 1006.00 902.50 L 1003.30 878.10 L 1000.20 853.80 L 996.50 829.60 L 991.80 803.20 L 986.50 777.00 L 978.40 742.20 L 968.90 707.80 L 963.50 690.80 L 957.70 673.90 L 954.70 666.80 L 951.10 659.80 L 947.00 653.10 L 942.30 646.80 L 937.20 640.80 L 931.60 635.30 L 922.50 628.00 L 912.50 622.00 L 907.20 619.50 L 901.70 617.50 L 896.10 615.80 L 890.20 614.60 L 882.30 542.80 L 892.50 539.50 L 902.00 534.90 L 908.00 531.20 L 913.80 527.10 L 924.50 517.70 L 934.20 507.50 L 942.50 497.70 L 950.40 487.60 L 959.90 473.40 L 964.20 466.00 L 968.10 458.50 L 971.60 450.70 L 974.60 442.70 L 977.40 434.30 L 982.10 417.10 L 983.70 408.30 L 985.00 396.60 L 985.10 390.60 L 984.80 385.20 L 980.90 364.10 L 980.40 358.80 L 980.50 355.10 L 981.60 348.00 L 983.10 342.90 L 990.00 326.10 L 990.20 322.50 L 989.00 319.00 L 986.60 316.10 L 983.40 314.20 L 978.40 313.30 L 972.00 314.00 L 968.30 314.90 L 962.00 317.00 L 955.90 319.50 L 950.00 322.40 L 944.30 325.70 L 946.50 318.30 L 948.30 310.80 L 949.70 303.20 L 950.70 295.50 L 951.20 287.70 L 951.20 280.00 L 950.70 272.30 L 949.70 264.70 L 947.30 254.50 L 944.80 248.00 L 943.10 244.90 L 941.60 243.30 L 939.90 242.30 L 937.80 241.80 L 935.70 241.70 L 933.60 242.20 L 931.70 243.10 L 930.20 244.40 L 929.10 246.30 L 919.00 269.70 L 912.30 261.10 L 909.50 258.30 L 903.10 253.90 L 897.90 251.20 L 892.40 249.00 L 881.20 245.40 L 874.20 243.60 L 871.90 242.80 L 869.90 241.60 L 868.20 239.90 L 838.20 203.10 L 836.70 201.50 L 833.50 199.80 L 832.10 199.60 L 829.20 200.10 L 826.90 201.50 L 825.50 203.10 L 824.70 205.00 L 824.50 207.80 L 824.90 209.10 L 826.60 212.10 L 828.70 214.80 L 848.10 238.10 L 829.80 234.70 L 757.90 223.90 L 741.30 220.20 L 733.20 217.70 L 725.30 214.70 L 717.80 211.10 L 710.50 207.20 L 703.40 202.90 L 696.50 198.30 L 689.90 193.20 L 683.60 187.90 L 677.60 182.20 L 668.60 172.70 L 664.80 169.70 L 662.60 169.10 L 660.30 169.10 L 658.00 169.70 L 655.90 170.70 L 654.20 172.30 L 652.80 174.20 Z M 949.90 173.90 L 948.60 175.00 L 947.60 176.30 L 946.40 179.40 L 940.30 205.60 L 938.50 214.90 L 939.10 217.80 L 940.30 219.60 L 942.00 221.10 L 944.10 222.10 L 946.30 222.50 L 949.20 222.10 L 950.60 221.30 L 952.00 219.90 L 953.70 216.40 L 960.00 188.70 L 961.60 179.80 L 960.90 177.20 L 959.60 175.50 L 958.00 174.10 L 956.10 173.20 L 954.00 172.80 L 951.30 173.20 L 949.90 173.90 Z M 541.60 187.00 L 539.60 187.80 L 537.90 189.00 L 535.20 192.30 L 534.40 194.20 L 533.60 198.40 L 534.20 202.50 L 535.00 204.40 L 536.20 206.10 L 539.60 209.10 L 541.50 210.10 L 545.70 210.90 L 549.90 210.30 L 552.00 209.50 L 555.50 207.00 L 556.80 205.30 L 557.90 203.50 L 558.60 201.30 L 558.90 199.00 L 558.80 196.80 L 558.20 194.60 L 555.90 190.80 L 552.50 187.90 L 550.50 186.90 L 548.30 186.20 L 546.10 186.00 L 543.90 186.20 L 541.60 187.00 Z M 1031.00 219.00 L 1028.30 220.90 L 1025.90 223.20 L 998.80 252.10 L 995.00 257.00 L 994.30 260.00 L 994.40 261.40 L 995.40 264.10 L 996.80 265.70 L 998.60 266.90 L 1001.30 267.70 L 1002.70 267.60 L 1004.80 267.00 L 1006.60 265.90 L 1009.70 263.00 L 1038.20 232.60 L 1040.80 229.30 L 1041.70 226.70 L 1041.70 225.30 L 1041.40 223.60 L 1039.80 220.90 L 1038.60 219.80 L 1035.70 218.50 L 1032.60 218.50 L 1031.00 219.00 Z M 536.40 239.20 L 533.00 241.40 L 530.50 244.60 L 529.10 248.40 L 528.90 250.50 L 529.30 254.50 L 530.40 256.90 L 532.00 259.00 L 534.00 260.70 L 536.20 262.00 L 538.70 262.80 L 541.30 263.10 L 543.70 262.90 L 545.90 262.30 L 547.90 261.20 L 549.80 259.80 L 551.30 258.10 L 552.60 256.10 L 553.40 253.90 L 553.80 251.70 L 553.80 249.30 L 552.80 245.60 L 551.80 244.00 L 549.90 241.80 L 547.60 240.10 L 544.90 238.90 L 542.10 238.30 L 540.20 238.30 L 536.40 239.20 Z M 415.30 244.70 L 413.40 245.30 L 411.90 246.40 L 410.60 247.80 L 409.70 249.50 L 409.20 251.30 L 408.90 320.80 L 409.50 322.80 L 410.60 324.70 L 412.00 326.20 L 414.50 327.40 L 417.50 327.70 L 420.20 327.00 L 422.00 325.80 L 423.30 324.10 L 424.30 321.50 L 424.90 255.90 L 424.80 251.60 L 424.30 249.40 L 423.30 247.50 L 422.30 246.30 L 419.70 244.90 L 417.50 244.50 L 415.30 244.70 Z M 316.50 293.90 L 314.40 295.80 L 313.20 299.00 L 313.20 301.10 L 313.80 303.00 L 315.00 304.80 L 338.30 330.50 L 340.00 331.60 L 342.50 332.50 L 345.70 332.10 L 347.20 331.40 L 349.70 329.00 L 350.90 325.90 L 350.90 324.20 L 350.50 322.60 L 349.60 321.10 L 326.50 295.60 L 324.80 294.20 L 322.80 293.10 L 320.70 292.60 L 317.90 293.00 L 316.50 293.90 Z M 512.70 300.60 L 484.30 325.70 L 482.40 327.90 L 481.90 329.20 L 481.60 331.30 L 482.00 333.40 L 482.80 335.30 L 484.20 336.90 L 486.60 338.30 L 489.60 338.60 L 492.40 338.00 L 494.20 336.90 L 517.30 316.60 L 523.10 311.10 L 524.20 309.40 L 524.70 307.70 L 524.70 306.00 L 524.30 304.40 L 523.50 302.90 L 520.90 300.30 L 517.70 299.10 L 516.00 299.10 L 514.40 299.60 L 512.70 300.60 Z M 1040.40 335.10 L 1038.90 335.90 L 1036.90 338.30 L 1036.30 339.80 L 1036.10 342.90 L 1037.10 345.90 L 1038.20 347.10 L 1039.80 348.30 L 1041.50 349.00 L 1045.40 349.50 L 1083.30 349.50 L 1094.60 349.10 L 1096.40 348.80 L 1097.90 348.10 L 1099.20 347.00 L 1100.20 345.60 L 1101.20 342.40 L 1101.20 340.60 L 1100.70 339.00 L 1098.70 336.10 L 1095.80 334.70 L 1090.70 334.20 L 1046.60 334.30 L 1043.40 334.40 L 1040.40 335.10 Z M 260.50 407.20 L 258.70 407.90 L 257.10 409.20 L 256.00 410.80 L 255.40 412.60 L 255.10 414.60 L 255.40 416.50 L 256.70 418.80 L 257.70 419.70 L 262.00 421.90 L 289.80 430.50 L 296.00 432.20 L 297.80 432.40 L 299.40 432.20 L 300.90 431.50 L 303.40 429.20 L 304.20 427.70 L 304.70 426.00 L 304.70 424.40 L 304.30 422.70 L 303.20 420.90 L 301.80 419.60 L 298.20 417.70 L 268.10 408.20 L 264.40 407.20 L 262.50 407.00 L 260.50 407.20 Z M 1026.90 429.60 L 1025.20 430.60 L 1023.80 432.00 L 1022.80 433.80 L 1022.30 435.80 L 1022.30 437.80 L 1023.00 439.70 L 1024.50 441.60 L 1026.40 443.00 L 1074.00 464.60 L 1075.50 465.10 L 1078.50 465.20 L 1081.30 463.90 L 1082.50 462.90 L 1084.10 460.30 L 1084.40 458.70 L 1084.50 457.20 L 1083.60 454.70 L 1082.30 453.10 L 1080.70 451.70 L 1077.00 449.70 L 1033.40 430.00 L 1030.20 429.10 L 1028.60 429.20 L 1026.90 429.60 Z M 991.20 497.60 L 989.90 498.70 L 988.10 501.50 L 987.70 503.10 L 987.80 504.70 L 990.20 510.00 L 992.40 513.40 L 1045.50 590.60 L 1046.70 592.20 L 1049.40 594.40 L 1052.00 595.00 L 1053.70 595.00 L 1055.30 594.50 L 1056.70 593.70 L 1058.90 591.20 L 1060.00 588.00 L 1059.90 586.40 L 1059.30 584.80 L 1057.50 581.60 L 1001.20 499.60 L 999.50 498.10 L 997.60 497.00 L 995.50 496.50 L 992.60 496.90 L 991.20 497.60 Z M 303.00 525.70 L 259.20 542.20 L 254.80 544.10 L 252.80 545.40 L 251.20 547.20 L 250.30 549.10 L 250.00 551.10 L 250.30 553.20 L 251.20 555.10 L 253.00 557.10 L 254.30 557.70 L 255.90 558.20 L 259.30 558.10 L 264.20 556.50 L 296.80 543.90 L 309.40 538.70 L 310.90 537.50 L 312.10 536.00 L 312.70 534.20 L 312.90 532.20 L 312.50 530.30 L 311.60 528.60 L 310.30 527.10 L 308.70 526.00 L 306.90 525.30 L 305.00 525.20 L 303.00 525.70 Z M 943.30 552.70 L 939.50 554.60 L 937.90 556.00 L 935.50 559.50 L 934.50 563.70 L 934.90 567.90 L 936.50 571.30 L 937.70 572.80 L 939.90 574.60 L 942.40 575.90 L 945.20 576.70 L 948.00 576.80 L 950.30 576.50 L 952.30 575.70 L 954.20 574.50 L 955.90 573.10 L 958.50 569.40 L 959.20 567.30 L 959.50 565.10 L 959.40 562.80 L 958.80 560.50 L 957.80 558.40 L 956.30 556.40 L 954.50 554.80 L 952.60 553.50 L 950.30 552.60 L 948.00 552.10 L 945.70 552.10 L 943.30 552.70 Z M 420.50 595.30 L 418.80 596.20 L 417.60 597.40 L 416.60 598.80 L 415.60 602.20 L 416.70 638.30 L 417.50 641.80 L 418.40 643.30 L 419.90 644.50 L 421.70 645.50 L 423.60 645.90 L 425.60 645.70 L 427.50 645.10 L 429.30 644.10 L 430.60 642.70 L 431.70 640.30 L 431.80 631.10 L 431.00 603.50 L 430.20 599.10 L 429.20 597.50 L 427.80 596.20 L 426.10 595.30 L 424.30 594.80 L 422.30 594.80 L 420.50 595.30 Z M 355.10 601.90 L 353.10 603.00 L 351.30 604.60 L 310.90 652.10 L 308.30 655.70 L 307.20 658.40 L 307.10 659.90 L 308.00 663.00 L 309.00 664.30 L 311.60 666.10 L 314.80 666.80 L 316.40 666.60 L 319.30 665.10 L 322.90 661.50 L 363.30 613.80 L 364.30 612.10 L 364.90 610.20 L 365.00 608.20 L 364.00 605.50 L 363.20 604.30 L 361.50 602.80 L 359.50 601.90 L 356.60 601.60 L 355.10 601.90 Z" fill="#ffffff" fill-rule="nonzero" node-id="63" stroke="none" target-height="1365.3" target-width="1365.3" target-x="0" target-y="0"></path><path d="M 377.40 384.70 L 380.90 383.20 L 384.60 382.20 L 388.20 381.80 L 392.00 381.80 L 395.70 382.20 L 399.30 383.10 L 406.30 386.00 L 412.50 390.40 L 415.20 393.00 L 417.60 395.90 L 421.90 402.20 L 425.80 408.80 L 429.20 415.60 L 432.10 422.70 L 434.40 430.00 L 436.30 437.40 L 437.60 444.90 L 438.50 452.60 L 438.80 460.30 L 438.50 467.90 L 437.80 475.50 L 436.40 483.00 L 433.70 493.40 L 431.80 498.40 L 429.70 503.40 L 424.40 512.70 L 421.30 517.00 L 417.80 521.10 L 414.00 524.90 L 410.70 527.50 L 407.20 529.60 L 403.40 531.40 L 399.50 532.80 L 395.40 533.60 L 391.30 534.00 L 387.10 533.80 L 383.10 533.10 L 379.10 531.80 L 382.30 531.60 L 388.40 530.10 L 391.20 528.90 L 394.70 526.80 L 398.00 524.20 L 401.10 521.30 L 406.30 514.70 L 411.70 505.30 L 414.30 499.30 L 416.50 493.10 L 418.20 486.70 L 420.40 473.70 L 421.00 460.40 L 420.60 451.50 L 419.60 442.80 L 418.10 434.10 L 413.90 418.70 L 410.00 408.80 L 407.60 404.10 L 404.80 399.60 L 401.60 395.40 L 397.90 391.60 L 393.90 388.60 L 388.30 386.20 L 384.70 385.40 L 377.40 384.70 Z" fill="#fdfdfd" fill-rule="nonzero" node-id="65" stroke="none" target-height="152.20001" target-width="61.399994" target-x="377.4" target-y="381.8"></path><path d="M 435.60 395.60 L 508.30 422.00 L 522.60 426.00 L 523.70 426.80 L 525.70 429.00 L 531.80 437.80 L 535.90 444.50 L 537.50 448.00 L 538.50 451.80 L 539.10 456.80 L 539.50 466.60 L 538.80 481.50 L 536.50 478.10 L 531.60 473.00 L 526.90 470.00 L 524.30 469.00 L 521.60 468.40 L 515.80 468.30 L 512.90 468.80 L 507.60 471.00 L 502.80 474.40 L 497.50 474.10 L 492.50 475.30 L 489.50 476.80 L 486.70 478.70 L 484.30 481.20 L 482.20 484.00 L 480.50 487.00 L 479.30 490.30 L 476.20 490.60 L 473.20 491.40 L 471.90 492.20 L 470.90 493.50 L 469.70 495.70 L 468.30 500.20 L 467.80 503.80 L 467.10 514.60 L 443.00 520.90 L 435.10 523.30 L 438.90 517.40 L 442.20 511.20 L 445.10 504.90 L 447.50 498.30 L 449.50 491.60 L 451.00 484.80 L 452.10 477.90 L 453.30 464.00 L 453.20 456.00 L 452.70 448.10 L 451.70 440.20 L 450.20 432.40 L 448.20 424.70 L 445.80 417.20 L 442.80 409.80 L 439.50 402.60 L 435.60 395.60 Z" fill="#fdfdfd" fill-rule="nonzero" node-id="67" stroke="none" target-height="127.69998" target-width="104.399994" target-x="435.1" target-y="395.6"></path><path d="M 616.60 545.70 L 627.10 563.60 L 632.00 585.60 L 636.30 607.70 L 633.80 605.70 L 631.70 603.30 L 625.80 595.90 L 622.30 592.30 L 621.60 590.90 L 620.70 577.50 L 616.60 545.70 Z" fill="#fdfdfd" fill-rule="nonzero" node-id="69" stroke="none" target-height="62" target-width="19.700012" target-x="616.6" target-y="545.7"></path><path d="M 735.90 600.70 L 744.60 598.90 L 753.10 596.50 L 761.40 593.60 L 769.60 590.20 L 777.60 586.50 L 785.50 582.30 L 795.80 617.90 L 773.80 620.80 L 762.70 621.80 L 751.60 622.50 L 729.30 622.60 L 718.20 622.00 L 707.10 620.90 L 696.10 619.40 L 689.00 618.90 L 667.90 615.50 L 665.90 609.60 L 661.30 591.20 L 669.10 594.60 L 677.10 597.40 L 685.30 599.70 L 693.60 601.30 L 702.00 602.40 L 710.50 602.90 L 719.00 602.70 L 727.50 602.00 L 735.90 600.70 Z" fill="#fdfdfd" fill-rule="nonzero" node-id="71" stroke="none" target-height="40.299988" target-width="134.5" target-x="661.3" target-y="582.3"></path><path d="M 522.40 675.50 L 534.30 643.40 L 538.60 632.80 L 540.60 638.00 L 542.00 643.30 L 542.90 648.80 L 543.80 659.90 L 543.80 665.40 L 543.40 670.10 L 428.10 1156.20 L 343.90 1156.20 L 358.90 1117.00 L 522.40 675.50 Z" fill="#fdfdfd" fill-rule="nonzero" node-id="73" stroke="none" target-height="523.39996" target-width="199.9" target-x="343.9" target-y="632.8"></path><path d="M 547.20 716.20 L 551.10 745.50 L 553.60 760.00 L 556.40 774.50 L 559.80 788.80 L 563.70 803.00 L 567.70 815.50 L 572.20 827.80 L 575.60 835.80 L 583.10 851.50 L 587.40 859.10 L 592.00 866.50 L 597.00 873.70 L 605.70 884.70 L 609.00 888.20 L 616.00 894.20 L 619.90 896.80 L 624.10 899.00 L 628.50 900.70 L 634.40 902.30 L 640.30 903.20 L 646.30 903.50 L 652.30 903.30 L 658.20 902.70 L 664.20 901.70 L 673.10 899.50 L 681.70 896.80 L 690.90 933.20 L 711.20 1008.80 L 693.30 1010.40 L 675.40 1012.70 L 657.60 1015.50 L 639.90 1018.90 L 622.30 1022.80 L 604.80 1027.40 L 587.50 1032.50 L 570.40 1038.10 L 553.50 1044.30 L 536.80 1051.10 L 523.70 1056.80 L 510.80 1062.90 L 498.20 1069.40 L 485.80 1076.50 L 477.80 1081.50 L 470.20 1086.90 L 465.20 1090.80 L 456.10 1099.40 L 459.30 1088.60 L 462.10 1077.70 L 540.00 748.90 L 547.20 716.20 Z M 557.90 904.60 L 555.60 906.50 L 551.80 911.30 L 547.10 919.10 L 544.60 924.70 L 542.50 930.50 L 541.50 934.50 L 540.60 942.60 L 540.70 946.60 L 541.40 950.60 L 542.50 954.60 L 546.20 961.30 L 547.90 963.20 L 549.80 964.80 L 552.10 966.00 L 553.80 966.30 L 555.50 966.30 L 557.10 965.70 L 558.60 964.80 L 560.80 962.30 L 561.50 960.80 L 561.70 959.10 L 561.40 957.40 L 557.60 951.00 L 555.70 946.50 L 555.50 944.00 L 556.10 937.70 L 558.40 930.20 L 560.50 925.90 L 563.00 921.80 L 568.40 914.00 L 569.30 911.10 L 568.50 908.00 L 567.80 906.70 L 565.40 904.60 L 562.40 903.70 L 560.90 903.60 L 557.90 904.60 Z M 596.60 946.10 L 592.70 947.70 L 589.80 950.50 L 588.70 952.30 L 587.40 956.20 L 587.50 960.20 L 588.90 964.00 L 591.80 967.50 L 593.70 968.80 L 595.70 969.60 L 597.90 970.10 L 602.40 969.90 L 606.60 968.30 L 608.50 967.00 L 610.00 965.40 L 611.20 963.50 L 612.50 959.00 L 612.40 956.90 L 612.00 954.70 L 610.10 950.90 L 606.90 947.90 L 605.10 946.80 L 601.00 945.60 L 598.80 945.60 L 596.60 946.10 Z" fill="#fdfdfd" fill-rule="nonzero" node-id="75" stroke="none" target-height="383.2" target-width="255.1" target-x="456.1" target-y="716.2"></path><path d="M 648.50 727.20 L 656.00 731.40 L 659.90 733.10 L 668.10 735.50 L 676.60 736.40 L 689.40 736.10 L 691.50 747.00 L 699.30 743.60 L 708.50 758.60 L 700.90 770.90 L 696.70 776.80 L 692.10 782.50 L 688.80 786.00 L 681.50 792.10 L 677.50 794.70 L 673.30 796.90 L 668.60 798.60 L 665.10 787.70 L 656.20 754.40 L 648.50 727.20 Z" fill="#fdfdfd" fill-rule="nonzero" node-id="77" stroke="none" target-height="71.39996" target-width="60" target-x="648.5" target-y="727.2"></path><path d="M 695.40 891.40 L 702.20 888.50 L 715.40 881.90 L 734.40 870.50 L 734.60 881.40 L 735.30 892.30 L 736.40 903.10 L 738.00 913.90 L 740.10 924.60 L 742.60 935.20 L 745.70 945.70 L 752.50 964.20 L 756.00 972.20 L 763.70 987.90 L 760.60 990.70 L 755.20 996.80 L 751.60 1001.80 L 748.30 1007.00 L 725.70 1007.70 L 695.40 891.40 Z" fill="#fdfdfd" fill-rule="nonzero" node-id="79" stroke="none" target-height="137.20001" target-width="68.29999" target-x="695.4" target-y="870.5"></path><path d="M 652.80 174.20 L 654.20 172.30 L 655.90 170.70 L 658.00 169.70 L 660.30 169.10 L 662.60 169.10 L 664.80 169.70 L 668.60 172.70 L 677.60 182.20 L 683.60 187.90 L 689.90 193.20 L 696.50 198.30 L 703.40 202.90 L 710.50 207.20 L 717.80 211.10 L 725.30 214.70 L 733.20 217.70 L 741.30 220.20 L 757.90 223.90 L 829.80 234.70 L 848.10 238.10 L 828.70 214.80 L 826.60 212.10 L 824.90 209.10 L 824.50 207.80 L 824.70 205.00 L 825.50 203.10 L 826.90 201.50 L 829.20 200.10 L 832.10 199.60 L 833.50 199.80 L 836.70 201.50 L 838.20 203.10 L 868.20 239.90 L 869.90 241.60 L 871.90 242.80 L 874.20 243.60 L 881.20 245.40 L 892.40 249.00 L 897.90 251.20 L 903.10 253.90 L 909.50 258.30 L 912.30 261.10 L 919.00 269.70 L 929.10 246.30 L 930.20 244.40 L 931.70 243.10 L 933.60 242.20 L 935.70 241.70 L 937.80 241.80 L 939.90 242.30 L 941.60 243.30 L 943.10 244.90 L 946.10 251.20 L 947.30 254.50 L 949.70 264.70 L 950.70 272.30 L 951.20 280.00 L 951.20 287.70 L 950.70 295.50 L 949.70 303.20 L 948.30 310.80 L 946.50 318.30 L 944.30 325.70 L 950.00 322.40 L 955.90 319.50 L 962.00 317.00 L 972.00 314.00 L 978.40 313.30 L 983.40 314.20 L 986.60 316.10 L 989.00 319.00 L 990.20 322.50 L 990.00 326.10 L 983.10 342.90 L 981.60 348.00 L 980.50 355.10 L 980.40 358.80 L 980.90 364.10 L 984.80 385.20 L 985.10 390.60 L 985.00 396.60 L 983.70 408.30 L 982.10 417.10 L 977.40 434.30 L 974.60 442.70 L 971.60 450.70 L 968.10 458.50 L 964.20 466.00 L 959.90 473.40 L 950.40 487.60 L 942.50 497.70 L 934.20 507.50 L 924.50 517.70 L 913.80 527.10 L 908.00 531.20 L 902.00 534.90 L 892.50 539.50 L 882.30 542.80 L 890.20 614.60 L 896.10 615.80 L 901.70 617.50 L 907.20 619.50 L 912.50 622.00 L 922.50 628.00 L 931.60 635.30 L 937.20 640.80 L 942.30 646.80 L 947.00 653.10 L 951.10 659.80 L 954.70 666.80 L 957.70 673.90 L 963.50 690.80 L 968.90 707.80 L 978.40 742.20 L 986.50 777.00 L 991.80 803.20 L 996.50 829.60 L 1000.20 853.80 L 1003.30 878.10 L 1006.00 902.50 L 1008.10 926.90 L 1009.80 951.40 L 1011.10 975.90 L 1011.80 998.00 L 1012.00 1020.20 L 1011.70 1042.30 L 1010.80 1064.50 L 1009.50 1086.60 L 1007.60 1108.70 L 1004.80 1132.60 L 1001.00 1156.30 L 1115.80 1156.50 L 1118.00 1157.10 L 1119.30 1157.90 L 1120.40 1158.90 L 1121.30 1160.30 L 1122.10 1163.50 L 1121.40 1166.70 L 1119.40 1169.20 L 1118.00 1170.10 L 1116.50 1170.60 L 1114.80 1170.80 L 666.60 1170.40 L 649.30 1170.90 L 632.00 1171.00 L 251.70 1170.90 L 248.90 1170.60 L 246.20 1169.80 L 244.80 1168.80 L 243.10 1166.10 L 242.70 1163.00 L 243.50 1159.80 L 245.70 1157.40 L 248.70 1156.40 L 251.90 1156.20 L 328.50 1156.20 L 440.20 853.60 L 526.70 621.10 L 512.40 608.20 L 505.60 601.30 L 499.30 594.00 L 493.80 586.80 L 488.70 579.30 L 484.10 571.50 L 480.00 563.40 L 476.40 555.10 L 473.30 546.50 L 470.90 537.80 L 468.90 528.90 L 420.10 541.20 L 400.00 547.10 L 395.60 547.90 L 391.10 548.10 L 386.50 547.90 L 382.10 547.10 L 377.70 545.90 L 373.50 544.30 L 369.50 542.20 L 365.70 539.70 L 361.40 536.20 L 357.50 532.30 L 354.00 528.10 L 350.80 523.70 L 348.00 519.00 L 343.30 509.00 L 339.70 498.60 L 337.80 491.00 L 336.40 483.30 L 335.30 475.50 L 334.70 467.60 L 334.50 459.70 L 334.70 451.90 L 335.30 444.00 L 336.30 436.20 L 337.70 428.40 L 339.50 420.80 L 341.80 413.30 L 344.50 405.80 L 347.40 399.20 L 350.80 392.80 L 353.40 388.60 L 359.50 381.10 L 362.90 377.80 L 366.80 374.80 L 370.90 372.30 L 374.70 370.50 L 378.60 369.10 L 382.60 368.10 L 390.80 367.40 L 399.10 368.20 L 407.10 370.50 L 509.20 407.60 L 511.30 396.00 L 513.30 389.80 L 516.20 385.50 L 518.30 383.90 L 523.00 381.50 L 530.60 379.30 L 538.50 378.20 L 547.60 377.40 L 556.70 377.00 L 575.00 377.50 L 593.20 379.20 L 595.00 379.60 L 598.20 381.40 L 600.20 383.30 L 603.20 388.00 L 605.90 395.10 L 609.40 409.40 L 610.70 398.80 L 612.50 388.00 L 614.10 380.90 L 618.40 367.10 L 621.00 360.40 L 624.00 353.90 L 627.50 347.60 L 631.40 341.60 L 635.80 335.80 L 640.70 330.40 L 633.80 328.20 L 627.10 325.60 L 620.50 322.60 L 614.10 319.20 L 607.90 315.60 L 596.20 307.30 L 590.60 302.70 L 589.40 301.50 L 588.60 300.00 L 588.10 296.60 L 588.90 293.30 L 589.80 291.90 L 591.00 290.70 L 592.50 289.80 L 594.30 289.30 L 596.20 289.10 L 616.80 290.00 L 625.20 289.80 L 633.60 289.00 L 628.50 285.50 L 623.70 281.60 L 619.30 277.30 L 615.30 272.60 L 611.60 267.60 L 608.40 262.40 L 605.50 256.90 L 603.10 251.20 L 601.10 245.40 L 598.60 235.20 L 597.70 230.00 L 597.00 219.50 L 597.70 209.00 L 598.70 203.90 L 600.10 198.80 L 600.90 196.60 L 602.20 194.60 L 603.90 192.90 L 607.30 191.20 L 610.50 191.10 L 613.70 192.30 L 616.60 195.30 L 623.90 207.40 L 627.50 212.70 L 635.40 222.70 L 639.90 227.30 L 644.60 231.50 L 649.70 235.30 L 655.10 238.70 L 660.80 241.60 L 657.70 236.20 L 652.40 225.10 L 650.20 219.40 L 648.60 213.40 L 647.50 207.30 L 647.00 201.70 L 646.90 196.00 L 647.40 190.30 L 648.50 184.70 L 649.60 181.00 L 652.80 174.20 Z M 673.70 233.00 L 676.00 235.90 L 686.50 246.40 L 688.80 249.30 L 688.00 253.90 L 687.00 256.10 L 685.60 257.80 L 684.50 258.70 L 683.10 259.30 L 681.40 259.40 L 672.70 259.10 L 668.30 258.40 L 661.90 257.00 L 655.60 255.00 L 649.50 252.40 L 643.70 249.20 L 638.10 245.50 L 632.90 241.40 L 628.10 236.90 L 623.60 232.00 L 619.40 226.80 L 615.60 221.40 L 612.10 215.70 L 612.60 226.50 L 614.50 237.30 L 617.90 247.70 L 620.20 252.70 L 622.80 257.40 L 625.80 261.90 L 629.20 266.10 L 633.10 270.00 L 637.30 273.50 L 640.70 276.00 L 644.20 278.00 L 658.90 285.20 L 660.10 286.20 L 660.70 287.40 L 661.00 288.80 L 660.20 293.20 L 659.40 295.00 L 658.30 296.30 L 655.10 298.20 L 651.50 299.40 L 635.40 303.20 L 627.20 304.70 L 618.90 305.70 L 625.80 309.40 L 633.00 312.50 L 640.40 315.10 L 647.90 317.10 L 655.60 318.60 L 663.30 319.60 L 671.20 320.10 L 679.00 320.10 L 690.40 319.30 L 694.00 319.60 L 695.70 320.20 L 697.30 321.20 L 709.70 331.30 L 712.90 333.50 L 724.00 339.00 L 731.70 342.10 L 739.60 344.60 L 755.80 348.40 L 776.40 351.50 L 793.30 353.40 L 797.70 354.60 L 799.70 355.70 L 801.30 357.40 L 802.50 359.70 L 803.30 362.00 L 805.90 389.60 L 807.30 398.30 L 809.00 406.90 L 811.20 415.40 L 813.80 423.70 L 816.90 432.00 L 820.50 440.00 L 824.50 447.80 L 832.90 444.30 L 837.20 443.00 L 841.70 442.10 L 847.60 442.00 L 854.90 443.40 L 858.90 444.80 L 862.80 446.80 L 866.30 449.30 L 869.60 452.10 L 872.50 455.30 L 875.00 458.80 L 877.10 462.50 L 878.80 466.50 L 880.10 470.90 L 880.80 475.40 L 881.00 480.00 L 880.70 484.50 L 879.90 489.00 L 878.60 493.40 L 876.90 497.70 L 874.80 501.80 L 869.80 508.90 L 866.90 512.00 L 860.50 517.20 L 853.30 521.40 L 849.40 523.00 L 841.40 525.20 L 846.50 527.10 L 851.70 528.50 L 857.10 529.40 L 862.50 529.90 L 867.90 529.90 L 873.30 529.40 L 878.60 528.50 L 883.80 526.90 L 888.90 524.90 L 895.40 521.50 L 901.60 517.50 L 907.30 513.10 L 912.80 508.20 L 922.90 497.70 L 930.00 489.20 L 942.50 472.70 L 947.80 464.50 L 952.60 456.00 L 955.80 449.40 L 961.30 435.90 L 963.50 428.90 L 967.40 414.60 L 968.90 407.30 L 969.90 400.00 L 970.20 395.10 L 969.60 385.30 L 965.90 366.70 L 965.40 362.10 L 965.20 357.30 L 965.60 352.40 L 967.60 342.90 L 972.20 329.00 L 965.30 331.40 L 958.60 334.30 L 952.00 337.60 L 933.10 348.60 L 927.20 344.80 L 925.10 341.90 L 925.40 337.60 L 926.30 333.40 L 930.40 321.10 L 933.40 309.20 L 934.90 301.50 L 935.80 293.60 L 936.30 285.70 L 936.30 277.80 L 935.70 269.90 L 925.90 291.30 L 923.10 296.40 L 919.80 301.30 L 918.70 302.70 L 917.40 303.50 L 915.90 304.00 L 912.80 304.00 L 909.70 302.70 L 907.40 300.50 L 906.70 282.90 L 906.20 280.10 L 905.30 277.30 L 904.00 274.60 L 902.30 272.20 L 898.40 268.20 L 895.00 265.80 L 891.20 263.80 L 883.20 260.70 L 875.10 258.30 L 847.00 252.10 L 811.60 246.20 L 759.10 238.60 L 748.70 236.60 L 738.50 234.30 L 728.40 231.30 L 719.10 227.70 L 710.00 223.50 L 701.30 218.80 L 692.80 213.50 L 684.60 207.70 L 676.70 201.60 L 669.20 195.00 L 662.10 188.00 L 661.70 193.30 L 662.20 203.80 L 663.10 209.10 L 664.30 214.20 L 666.00 219.20 L 668.10 224.00 L 670.70 228.60 L 673.70 233.00 Z M 669.40 334.70 L 660.60 333.90 L 657.70 333.90 L 652.90 338.30 L 648.60 343.00 L 644.70 348.00 L 637.90 358.80 L 635.00 364.50 L 631.20 373.30 L 628.00 382.30 L 636.70 378.50 L 639.00 377.90 L 641.30 377.80 L 642.90 378.10 L 645.50 379.50 L 647.40 381.80 L 648.30 384.70 L 648.10 386.20 L 647.70 387.70 L 646.60 389.20 L 645.20 390.30 L 635.40 394.90 L 632.40 396.90 L 621.30 405.70 L 619.60 421.70 L 630.00 426.00 L 636.30 429.90 L 639.30 432.20 L 642.50 416.60 L 643.60 412.70 L 645.10 409.10 L 646.30 407.80 L 647.50 406.90 L 650.50 406.30 L 652.00 406.50 L 654.90 407.70 L 657.10 409.80 L 657.80 411.10 L 658.10 412.60 L 658.10 414.30 L 653.30 435.50 L 649.10 449.30 L 645.00 459.70 L 644.10 463.40 L 643.40 471.10 L 643.30 482.90 L 643.00 486.70 L 664.10 488.00 L 669.20 489.10 L 672.00 491.00 L 673.00 492.40 L 673.70 493.90 L 673.70 497.10 L 673.20 498.60 L 671.20 501.20 L 669.90 502.10 L 668.40 502.60 L 666.80 502.70 L 642.40 500.70 L 641.60 511.00 L 640.40 521.20 L 637.90 531.20 L 636.20 534.90 L 634.90 536.50 L 630.40 540.70 L 635.40 550.00 L 638.30 554.40 L 641.60 558.50 L 649.00 566.10 L 657.40 572.60 L 663.40 576.30 L 669.70 579.50 L 676.20 582.20 L 682.90 584.40 L 689.80 586.20 L 696.70 587.50 L 703.40 588.40 L 710.10 588.70 L 716.80 588.70 L 723.50 588.20 L 732.40 586.90 L 741.20 585.00 L 749.80 582.40 L 758.30 579.40 L 766.50 575.80 L 779.60 569.30 L 782.30 568.20 L 786.80 567.30 L 790.50 567.90 L 792.20 568.60 L 794.90 570.70 L 796.50 572.80 L 798.80 577.60 L 814.60 630.50 L 821.50 626.60 L 828.70 623.10 L 836.00 620.10 L 843.50 617.60 L 851.20 615.60 L 859.00 614.10 L 866.90 613.20 L 874.80 612.80 L 867.60 544.60 L 862.20 544.50 L 851.60 543.10 L 846.40 541.80 L 839.60 539.60 L 833.00 536.80 L 826.70 533.50 L 819.50 529.20 L 816.10 526.80 L 813.10 523.90 L 812.70 514.90 L 818.00 512.60 L 834.10 512.80 L 838.80 512.20 L 843.00 511.30 L 846.90 510.00 L 850.70 508.10 L 854.20 505.80 L 857.40 503.10 L 860.40 500.10 L 862.90 496.70 L 865.00 493.10 L 866.70 489.30 L 868.00 483.10 L 868.10 479.90 L 867.20 473.60 L 865.00 467.60 L 861.50 462.50 L 859.20 460.20 L 856.70 458.40 L 853.90 456.80 L 850.80 455.80 L 847.80 455.30 L 844.70 455.20 L 838.70 456.40 L 835.80 457.60 L 830.50 460.90 L 826.40 464.60 L 819.40 474.10 L 818.30 475.00 L 815.80 475.80 L 813.90 475.60 L 811.90 474.80 L 810.20 473.60 L 809.00 472.00 L 808.30 469.60 L 808.40 468.20 L 810.50 462.70 L 813.30 457.60 L 809.40 450.70 L 805.90 443.70 L 802.70 436.50 L 799.90 429.10 L 796.70 419.10 L 794.10 408.90 L 792.00 398.60 L 790.40 388.20 L 789.30 377.70 L 788.70 367.20 L 767.80 365.10 L 757.40 363.50 L 747.10 361.50 L 736.90 358.90 L 726.80 355.70 L 720.00 353.20 L 713.50 350.20 L 707.10 346.70 L 701.00 342.80 L 695.30 338.50 L 689.90 333.70 L 676.20 334.80 L 669.40 334.70 Z M 377.40 384.70 L 384.70 385.40 L 388.30 386.20 L 391.80 387.50 L 396.00 389.90 L 401.60 395.40 L 404.80 399.60 L 407.60 404.10 L 412.10 413.70 L 416.20 426.40 L 418.10 434.10 L 419.60 442.80 L 420.60 451.50 L 421.00 460.40 L 420.90 467.10 L 420.40 473.70 L 418.20 486.70 L 416.50 493.10 L 414.30 499.30 L 411.70 505.30 L 406.30 514.70 L 401.10 521.30 L 398.00 524.20 L 394.70 526.80 L 391.20 528.90 L 388.40 530.10 L 382.30 531.60 L 379.10 531.80 L 383.10 533.10 L 387.10 533.80 L 391.30 534.00 L 395.40 533.60 L 399.50 532.80 L 403.40 531.40 L 407.20 529.60 L 410.70 527.50 L 414.00 524.90 L 417.80 521.10 L 421.30 517.00 L 424.40 512.70 L 429.70 503.40 L 431.80 498.40 L 435.20 488.20 L 437.80 475.50 L 438.50 467.90 L 438.80 460.30 L 438.50 452.60 L 437.60 444.90 L 436.30 437.40 L 434.40 430.00 L 432.10 422.70 L 429.20 415.60 L 425.80 408.80 L 421.90 402.20 L 417.60 395.90 L 415.20 393.00 L 412.50 390.40 L 406.30 386.00 L 399.30 383.10 L 395.70 382.20 L 392.00 381.80 L 388.20 381.80 L 384.60 382.20 L 380.90 383.20 L 377.40 384.70 Z M 541.50 391.90 L 534.20 393.00 L 530.60 393.90 L 527.30 395.30 L 525.40 400.60 L 524.00 411.80 L 555.30 411.50 L 570.80 412.60 L 573.60 413.10 L 576.10 414.10 L 578.40 415.50 L 580.40 417.30 L 582.10 419.40 L 583.50 421.80 L 585.70 427.30 L 587.60 432.90 L 590.20 444.20 L 591.20 451.90 L 591.80 459.70 L 591.90 467.60 L 591.50 479.40 L 590.70 491.00 L 597.50 492.90 L 601.40 495.30 L 605.00 499.70 L 606.60 502.50 L 609.70 509.80 L 611.00 514.50 L 615.00 533.40 L 619.80 531.10 L 621.90 529.50 L 623.70 527.60 L 624.60 526.20 L 625.50 522.60 L 627.10 510.70 L 628.20 498.70 L 628.90 486.70 L 629.50 450.70 L 629.20 444.90 L 628.50 441.90 L 626.70 440.10 L 622.80 438.00 L 606.20 431.50 L 602.20 429.60 L 600.60 428.50 L 599.50 427.10 L 598.10 423.60 L 594.10 406.30 L 592.20 399.50 L 589.80 392.90 L 581.80 392.00 L 565.60 391.10 L 557.60 391.10 L 541.50 391.90 Z M 435.60 395.60 L 439.50 402.60 L 442.80 409.80 L 445.80 417.20 L 448.20 424.70 L 450.20 432.40 L 451.70 440.20 L 452.70 448.10 L 453.20 456.00 L 453.30 464.00 L 452.10 477.90 L 451.00 484.80 L 449.50 491.60 L 447.50 498.30 L 445.10 504.90 L 442.20 511.20 L 438.90 517.40 L 435.10 523.30 L 443.00 520.90 L 467.10 514.60 L 467.80 503.80 L 468.30 500.20 L 469.70 495.70 L 470.90 493.50 L 471.90 492.20 L 473.20 491.40 L 476.20 490.60 L 479.30 490.30 L 480.50 487.00 L 482.20 484.00 L 484.30 481.20 L 486.70 478.70 L 489.50 476.80 L 492.50 475.30 L 495.00 474.50 L 500.10 474.00 L 502.80 474.40 L 507.60 471.00 L 512.90 468.80 L 515.80 468.30 L 521.60 468.40 L 524.30 469.00 L 526.90 470.00 L 531.60 473.00 L 536.50 478.10 L 538.80 481.50 L 539.50 466.60 L 539.10 456.80 L 538.50 451.80 L 537.50 448.00 L 535.90 444.50 L 534.00 441.10 L 525.70 429.00 L 523.70 426.80 L 522.60 426.00 L 508.30 422.00 L 435.60 395.60 Z M 361.70 407.00 L 358.90 410.90 L 354.50 419.20 L 352.00 425.90 L 350.10 432.70 L 348.70 439.70 L 347.80 446.70 L 347.40 459.30 L 348.20 471.90 L 350.40 484.40 L 352.10 490.40 L 354.10 496.40 L 356.60 502.20 L 358.80 506.20 L 361.50 510.20 L 363.60 512.60 L 368.40 516.50 L 371.20 517.80 L 374.10 518.60 L 379.90 518.80 L 382.20 518.10 L 384.50 517.00 L 386.50 515.60 L 390.30 512.30 L 386.40 509.20 L 380.30 503.60 L 376.40 498.20 L 373.30 492.70 L 370.80 487.00 L 368.80 481.10 L 367.30 475.00 L 366.20 468.90 L 365.60 462.60 L 365.40 456.30 L 365.70 450.10 L 366.40 443.90 L 367.40 438.60 L 368.80 433.50 L 370.50 428.40 L 372.80 423.50 L 375.40 418.90 L 378.40 414.50 L 381.80 410.40 L 385.70 406.80 L 390.10 403.50 L 384.50 399.20 L 382.90 398.40 L 378.60 397.80 L 376.20 397.90 L 373.70 398.50 L 369.20 400.40 L 364.10 404.20 L 361.70 407.00 Z M 386.30 426.40 L 382.60 433.90 L 381.30 437.80 L 379.90 443.90 L 379.00 450.20 L 378.80 456.50 L 379.30 467.60 L 380.10 472.40 L 381.30 477.20 L 382.90 481.80 L 384.90 486.30 L 387.40 490.50 L 390.30 494.40 L 393.60 497.90 L 397.40 501.10 L 399.90 496.10 L 403.90 485.60 L 405.30 480.20 L 406.60 472.90 L 407.30 465.50 L 407.50 458.10 L 407.00 450.60 L 406.10 443.20 L 404.70 435.80 L 402.80 428.50 L 400.60 421.40 L 397.90 414.50 L 391.50 419.90 L 388.70 423.00 L 386.30 426.40 Z M 547.00 425.40 L 549.30 432.20 L 551.20 439.20 L 552.50 446.30 L 553.90 460.60 L 554.00 467.90 L 553.70 478.70 L 552.70 489.50 L 551.00 499.00 L 550.70 504.20 L 551.80 508.40 L 561.90 529.60 L 565.50 519.60 L 567.60 514.60 L 573.50 502.50 L 574.90 498.60 L 575.70 494.50 L 577.00 484.40 L 577.60 474.10 L 577.80 467.20 L 577.00 453.60 L 576.10 446.80 L 574.80 440.10 L 573.00 433.50 L 571.30 429.30 L 569.40 427.20 L 568.00 426.70 L 562.80 425.90 L 547.00 425.40 Z M 512.00 490.60 L 512.70 501.80 L 513.60 507.30 L 515.50 515.50 L 519.90 530.40 L 522.50 537.10 L 525.60 543.60 L 529.00 549.90 L 536.90 561.90 L 537.80 563.70 L 538.00 565.30 L 537.80 566.90 L 537.20 568.40 L 534.90 570.90 L 531.80 572.40 L 530.10 572.60 L 528.50 572.50 L 527.00 571.80 L 525.50 570.50 L 521.10 564.70 L 517.10 558.60 L 513.50 552.20 L 510.40 545.70 L 507.60 538.90 L 503.00 525.10 L 501.20 517.90 L 499.30 508.30 L 497.90 498.70 L 496.90 489.10 L 495.90 488.80 L 494.20 489.10 L 492.30 491.20 L 491.10 493.80 L 489.80 498.00 L 489.00 502.30 L 488.70 506.60 L 489.10 515.30 L 491.20 526.00 L 495.20 539.10 L 497.80 545.80 L 500.80 552.30 L 504.20 558.50 L 508.10 564.50 L 514.60 573.20 L 516.30 576.40 L 516.60 578.10 L 515.70 581.30 L 513.70 583.60 L 510.00 586.20 L 517.30 594.00 L 525.00 601.30 L 537.30 611.70 L 541.20 615.50 L 544.80 619.60 L 548.00 623.90 L 550.80 628.60 L 553.00 633.50 L 554.90 639.50 L 556.20 645.60 L 557.00 651.80 L 559.40 691.70 L 561.10 712.80 L 564.50 740.80 L 566.70 754.70 L 569.30 768.60 L 572.50 782.30 L 576.10 795.90 L 580.30 809.50 L 585.10 822.90 L 588.80 831.70 L 592.80 840.30 L 597.20 848.70 L 602.00 856.80 L 607.30 864.60 L 615.90 875.40 L 618.80 878.30 L 625.50 883.50 L 629.10 885.60 L 633.00 887.30 L 636.90 888.60 L 641.00 889.30 L 645.30 889.60 L 657.10 888.70 L 662.80 887.70 L 671.40 885.60 L 679.80 882.80 L 696.10 876.00 L 707.60 870.30 L 718.80 864.00 L 729.70 857.10 L 740.40 849.90 L 750.80 842.30 L 770.20 826.80 L 779.30 819.00 L 796.70 802.70 L 813.30 785.50 L 807.70 773.30 L 801.00 761.60 L 796.80 755.60 L 792.10 749.90 L 787.10 744.50 L 781.60 739.50 L 775.80 734.90 L 769.70 730.80 L 763.30 727.10 L 756.60 724.00 L 749.60 721.40 L 739.50 734.90 L 725.50 755.60 L 712.20 776.50 L 707.40 783.20 L 702.40 789.70 L 694.90 797.60 L 690.70 801.30 L 682.20 807.20 L 679.20 808.90 L 672.80 811.40 L 669.50 812.10 L 666.10 812.30 L 662.50 812.10 L 660.00 811.50 L 657.70 810.50 L 653.70 807.60 L 650.50 803.70 L 648.60 800.40 L 647.10 797.00 L 645.30 790.70 L 643.90 784.30 L 639.70 758.50 L 634.00 732.90 L 627.90 707.40 L 621.30 682.00 L 614.20 656.80 L 608.90 639.80 L 604.40 628.90 L 601.50 623.80 L 604.70 611.30 L 605.90 605.10 L 607.00 592.20 L 607.00 585.80 L 605.50 569.90 L 598.70 525.20 L 596.30 514.70 L 594.40 509.60 L 593.00 507.60 L 590.30 506.20 L 588.60 506.30 L 586.60 507.40 L 583.50 512.30 L 579.90 520.20 L 574.00 539.00 L 571.30 546.80 L 570.30 548.10 L 567.50 550.10 L 564.30 550.90 L 562.60 550.90 L 559.50 549.80 L 555.70 546.40 L 550.10 537.90 L 545.90 530.30 L 542.10 522.50 L 531.50 498.80 L 527.60 491.10 L 524.00 485.80 L 522.50 484.40 L 520.80 483.30 L 518.70 482.80 L 516.20 483.30 L 513.80 485.20 L 512.80 486.90 L 512.20 488.80 L 512.00 490.60 Z M 616.60 545.70 L 620.70 577.50 L 621.30 589.20 L 622.30 592.30 L 625.80 595.90 L 631.70 603.30 L 633.80 605.70 L 636.30 607.70 L 632.00 585.60 L 627.10 563.60 L 616.60 545.70 Z M 735.90 600.70 L 727.50 602.00 L 719.00 602.70 L 710.50 602.90 L 702.00 602.40 L 693.60 601.30 L 685.30 599.70 L 677.10 597.40 L 669.10 594.60 L 661.30 591.20 L 665.90 609.60 L 667.90 615.50 L 689.00 618.90 L 696.10 619.40 L 707.10 620.90 L 718.20 622.00 L 729.30 622.60 L 751.60 622.50 L 762.70 621.80 L 773.80 620.80 L 795.80 617.90 L 785.50 582.30 L 777.60 586.50 L 769.60 590.20 L 761.40 593.60 L 753.10 596.50 L 744.60 598.90 L 735.90 600.70 Z M 619.70 608.00 L 615.50 623.80 L 617.90 625.90 L 621.90 630.60 L 623.40 633.30 L 625.00 637.10 L 626.00 641.10 L 627.00 649.60 L 628.10 653.80 L 632.80 665.90 L 641.00 690.40 L 643.60 697.10 L 647.70 705.60 L 650.20 709.70 L 652.50 712.30 L 657.50 716.50 L 660.30 718.20 L 664.30 719.90 L 668.50 721.20 L 672.80 722.00 L 677.30 722.50 L 686.10 722.50 L 675.60 704.40 L 668.40 691.20 L 661.70 677.80 L 655.60 664.20 L 649.90 650.30 L 644.80 636.20 L 640.30 621.90 L 634.60 620.80 L 629.50 618.30 L 625.00 614.80 L 622.20 611.60 L 619.70 608.00 Z M 804.50 655.00 L 797.50 660.80 L 790.90 666.90 L 784.50 673.30 L 778.50 680.00 L 767.30 694.20 L 757.40 709.30 L 763.80 711.60 L 769.90 714.30 L 775.70 717.50 L 781.40 721.00 L 791.90 729.10 L 796.80 733.60 L 801.50 738.40 L 809.90 748.80 L 817.20 760.10 L 821.40 768.00 L 825.00 776.10 L 828.00 784.40 L 873.80 749.70 L 879.40 746.00 L 883.00 744.70 L 884.50 744.60 L 887.60 745.60 L 890.00 747.50 L 890.80 748.90 L 891.40 752.00 L 890.70 754.70 L 888.50 757.50 L 865.30 774.50 L 840.50 793.80 L 833.80 798.10 L 828.10 800.40 L 825.10 800.90 L 822.00 801.00 L 818.70 800.50 L 803.60 815.70 L 813.10 822.80 L 822.90 829.60 L 832.90 836.10 L 843.30 842.10 L 853.80 847.80 L 864.50 853.00 L 875.40 857.80 L 886.60 862.10 L 897.90 866.00 L 909.30 869.30 L 920.80 872.10 L 932.50 874.40 L 944.30 876.10 L 956.10 877.20 L 968.00 877.70 L 984.30 877.70 L 988.60 878.20 L 985.60 856.00 L 982.20 833.90 L 978.40 811.80 L 974.10 789.80 L 969.40 767.90 L 964.10 746.10 L 958.30 724.50 L 951.90 703.10 L 944.80 681.80 L 942.80 676.50 L 937.70 666.20 L 934.70 661.40 L 927.80 652.40 L 923.80 648.20 L 919.60 644.40 L 915.10 640.90 L 910.20 637.70 L 905.10 634.90 L 899.80 632.50 L 894.20 630.60 L 888.60 629.10 L 882.90 628.00 L 877.10 627.50 L 871.20 627.40 L 865.40 627.80 L 857.90 629.00 L 850.60 630.70 L 843.50 632.90 L 836.50 635.70 L 829.70 638.80 L 823.10 642.40 L 816.70 646.40 L 804.50 655.00 Z M 671.90 630.70 L 683.30 661.10 L 683.70 651.50 L 684.60 641.90 L 686.20 632.40 L 671.90 630.70 Z M 775.70 660.80 L 784.00 653.10 L 802.10 638.10 L 802.40 636.70 L 800.20 631.80 L 796.60 634.20 L 793.40 636.80 L 790.40 639.80 L 786.30 644.70 L 782.50 649.90 L 775.70 660.80 Z M 522.40 675.50 L 358.90 1117.00 L 343.90 1156.20 L 428.10 1156.20 L 543.40 670.10 L 543.80 665.40 L 543.80 659.90 L 542.90 648.80 L 542.00 643.30 L 540.60 638.00 L 538.60 632.80 L 534.30 643.40 L 522.40 675.50 Z M 701.00 634.70 L 699.60 640.80 L 698.70 647.00 L 698.30 653.30 L 698.30 662.70 L 698.70 672.00 L 699.70 680.20 L 701.20 688.40 L 702.50 693.80 L 704.30 699.00 L 706.50 704.10 L 710.50 711.80 L 714.90 719.30 L 724.20 734.10 L 734.60 719.70 L 737.70 714.70 L 740.40 709.50 L 752.80 676.80 L 756.30 667.80 L 760.30 659.00 L 764.80 650.50 L 768.10 645.00 L 771.90 639.80 L 776.00 634.70 L 763.50 636.10 L 751.00 636.90 L 738.50 637.10 L 725.90 636.80 L 713.40 636.00 L 701.00 634.70 Z M 547.20 716.20 L 540.00 748.90 L 462.10 1077.70 L 459.30 1088.60 L 456.10 1099.40 L 465.20 1090.80 L 470.20 1086.90 L 477.80 1081.50 L 485.80 1076.50 L 498.20 1069.40 L 510.80 1062.90 L 523.70 1056.80 L 536.80 1051.10 L 553.50 1044.30 L 570.40 1038.10 L 587.50 1032.50 L 604.80 1027.40 L 622.30 1022.80 L 639.90 1018.90 L 657.60 1015.50 L 675.40 1012.70 L 693.30 1010.40 L 711.20 1008.80 L 690.90 933.20 L 681.70 896.80 L 673.10 899.50 L 664.20 901.70 L 658.20 902.70 L 652.30 903.30 L 646.30 903.50 L 640.30 903.20 L 634.40 902.30 L 628.50 900.70 L 624.10 899.00 L 619.90 896.80 L 616.00 894.20 L 609.00 888.20 L 605.70 884.70 L 597.00 873.70 L 592.00 866.50 L 587.40 859.10 L 583.10 851.50 L 575.60 835.80 L 572.20 827.80 L 567.70 815.50 L 563.70 803.00 L 559.80 788.80 L 556.40 774.50 L 553.60 760.00 L 551.10 745.50 L 547.20 716.20 Z M 648.50 727.20 L 656.20 754.40 L 665.10 787.70 L 668.60 798.60 L 673.30 796.90 L 677.50 794.70 L 681.50 792.10 L 688.80 786.00 L 692.10 782.50 L 696.70 776.80 L 700.90 770.90 L 708.50 758.60 L 699.30 743.60 L 691.50 747.00 L 689.40 736.10 L 676.60 736.40 L 668.10 735.50 L 659.90 733.10 L 656.00 731.40 L 648.50 727.20 Z M 749.50 860.60 L 749.10 869.90 L 749.60 888.60 L 751.60 907.10 L 755.20 925.40 L 760.30 943.40 L 763.40 952.10 L 770.80 969.30 L 779.30 986.90 L 779.90 989.60 L 778.80 992.70 L 777.60 994.40 L 770.90 1000.70 L 767.50 1004.50 L 764.50 1008.60 L 761.90 1012.90 L 759.60 1017.50 L 757.70 1022.30 L 756.10 1027.10 L 754.00 1037.10 L 768.10 1041.20 L 823.90 1060.70 L 838.00 1064.80 L 852.60 1068.40 L 867.30 1071.40 L 882.10 1073.90 L 897.00 1075.90 L 911.90 1077.40 L 926.90 1078.60 L 941.90 1079.30 L 971.90 1079.90 L 987.60 1079.60 L 995.30 1078.70 L 996.50 1059.10 L 997.10 1039.60 L 997.30 1020.10 L 997.10 1000.60 L 995.60 961.50 L 993.70 932.30 L 991.30 903.10 L 981.60 903.80 L 972.00 904.00 L 962.30 903.90 L 952.60 903.30 L 939.80 901.90 L 927.00 900.00 L 914.30 897.50 L 902.40 894.70 L 890.70 891.30 L 879.20 887.40 L 867.70 883.10 L 856.50 878.40 L 845.50 873.20 L 834.60 867.70 L 824.00 861.70 L 813.50 855.30 L 803.30 848.70 L 793.30 841.70 L 783.50 834.40 L 761.10 852.20 L 749.50 860.60 Z M 695.40 891.40 L 725.70 1007.70 L 748.30 1007.00 L 751.60 1001.80 L 755.20 996.80 L 760.60 990.70 L 763.70 987.90 L 756.00 972.20 L 752.50 964.20 L 745.70 945.70 L 742.60 935.20 L 740.10 924.60 L 738.00 913.90 L 736.40 903.10 L 735.30 892.30 L 734.60 881.40 L 734.40 870.50 L 715.40 881.90 L 708.90 885.40 L 695.40 891.40 Z M 673.90 1027.50 L 657.30 1030.30 L 640.80 1033.50 L 624.40 1037.30 L 608.10 1041.60 L 591.90 1046.30 L 575.90 1051.60 L 560.10 1057.40 L 544.40 1063.60 L 529.00 1070.40 L 513.80 1077.70 L 497.60 1086.40 L 489.70 1091.10 L 482.10 1096.20 L 477.20 1099.80 L 468.10 1108.00 L 463.70 1113.40 L 461.90 1116.30 L 459.60 1121.00 L 457.80 1125.90 L 449.30 1155.80 L 762.30 1155.70 L 866.60 1155.80 L 946.70 1156.40 L 986.70 1156.20 L 991.10 1125.10 L 993.00 1109.50 L 994.40 1093.90 L 976.50 1094.30 L 958.60 1094.30 L 940.70 1093.80 L 922.80 1092.80 L 905.00 1091.20 L 887.20 1089.00 L 869.50 1086.30 L 851.90 1082.90 L 838.80 1079.90 L 825.90 1076.30 L 813.10 1072.30 L 762.20 1054.60 L 749.40 1050.60 L 745.10 1049.00 L 743.00 1047.90 L 741.20 1046.50 L 739.50 1044.10 L 739.10 1042.60 L 739.00 1038.90 L 739.90 1031.80 L 742.50 1021.20 L 696.70 1024.50 L 673.90 1027.50 Z" fill="#24284a" fill-rule="nonzero" node-id="81" stroke="none" target-height="1001.9" target-width="879.39996" target-x="242.7" target-y="169.1"></path><path d="M 949.90 173.90 L 951.30 173.20 L 954.00 172.80 L 956.10 173.20 L 958.00 174.10 L 959.60 175.50 L 960.90 177.20 L 961.60 179.80 L 960.00 188.70 L 953.70 216.40 L 952.00 219.90 L 950.60 221.30 L 949.20 222.10 L 946.30 222.50 L 944.10 222.10 L 942.00 221.10 L 940.30 219.60 L 939.10 217.80 L 938.50 214.90 L 940.30 205.60 L 946.40 179.40 L 947.60 176.30 L 948.60 175.00 L 949.90 173.90 Z" fill="#24284a" fill-rule="nonzero" node-id="83" stroke="none" target-height="49.699997" target-width="23.099976" target-x="938.5" target-y="172.8"></path><path d="M 541.60 187.00 L 543.90 186.20 L 546.10 186.00 L 548.30 186.20 L 550.50 186.90 L 552.50 187.90 L 555.90 190.80 L 558.20 194.60 L 558.80 196.80 L 558.90 199.00 L 558.60 201.30 L 557.90 203.50 L 556.80 205.30 L 555.50 207.00 L 552.00 209.50 L 547.80 210.70 L 545.70 210.90 L 541.50 210.10 L 539.60 209.10 L 537.80 207.70 L 536.20 206.10 L 535.00 204.40 L 533.80 200.40 L 533.60 198.40 L 534.40 194.20 L 536.40 190.50 L 537.90 189.00 L 539.60 187.80 L 541.60 187.00 Z" fill="#24284a" fill-rule="nonzero" node-id="85" stroke="none" target-height="24.899994" target-width="25.300049" target-x="533.6" target-y="186"></path><path d="M 1031.00 219.00 L 1032.60 218.50 L 1035.70 218.50 L 1038.60 219.80 L 1039.80 220.90 L 1041.40 223.60 L 1041.70 225.30 L 1041.70 226.70 L 1040.80 229.30 L 1038.20 232.60 L 1009.70 263.00 L 1006.60 265.90 L 1004.80 267.00 L 1002.70 267.60 L 1001.30 267.70 L 998.60 266.90 L 996.80 265.70 L 995.40 264.10 L 994.40 261.40 L 994.30 260.00 L 995.00 257.00 L 998.80 252.10 L 1025.90 223.20 L 1028.30 220.90 L 1031.00 219.00 Z" fill="#24284a" fill-rule="nonzero" node-id="87" stroke="none" target-height="49.200012" target-width="47.399963" target-x="994.3" target-y="218.5"></path><path d="M 536.40 239.20 L 540.20 238.30 L 542.10 238.30 L 544.90 238.90 L 547.60 240.10 L 549.90 241.80 L 551.80 244.00 L 552.80 245.60 L 553.80 249.30 L 553.80 251.70 L 553.40 253.90 L 552.60 256.10 L 551.30 258.10 L 549.80 259.80 L 547.90 261.20 L 545.90 262.30 L 543.70 262.90 L 541.30 263.10 L 538.70 262.80 L 536.20 262.00 L 534.00 260.70 L 532.00 259.00 L 530.40 256.90 L 529.30 254.50 L 528.90 250.50 L 529.10 248.40 L 530.50 244.60 L 533.00 241.40 L 536.40 239.20 Z" fill="#24284a" fill-rule="nonzero" node-id="89" stroke="none" target-height="24.800003" target-width="24.899963" target-x="528.9" target-y="238.3"></path><path d="M 415.30 244.70 L 417.50 244.50 L 419.70 244.90 L 421.10 245.50 L 423.30 247.50 L 424.30 249.40 L 424.80 251.60 L 424.30 321.50 L 423.30 324.10 L 422.00 325.80 L 420.20 327.00 L 418.90 327.50 L 417.50 327.70 L 414.50 327.40 L 412.00 326.20 L 410.60 324.70 L 409.50 322.80 L 408.90 320.80 L 409.20 251.30 L 409.70 249.50 L 410.60 247.80 L 411.90 246.40 L 413.40 245.30 L 415.30 244.70 Z" fill="#24284a" fill-rule="nonzero" node-id="91" stroke="none" target-height="83.20001" target-width="15.899994" target-x="408.9" target-y="244.5"></path><path d="M 316.50 293.90 L 317.90 293.00 L 320.70 292.60 L 322.80 293.10 L 324.80 294.20 L 326.50 295.60 L 349.60 321.10 L 350.50 322.60 L 350.90 324.20 L 350.90 325.90 L 349.70 329.00 L 347.20 331.40 L 345.70 332.10 L 342.50 332.50 L 340.00 331.60 L 338.30 330.50 L 315.00 304.80 L 313.80 303.00 L 313.20 301.10 L 313.20 299.00 L 314.40 295.80 L 316.50 293.90 Z" fill="#24284a" fill-rule="nonzero" node-id="93" stroke="none" target-height="39.899994" target-width="37.69998" target-x="313.2" target-y="292.6"></path><path d="M 512.70 300.60 L 514.40 299.60 L 516.00 299.10 L 517.70 299.10 L 520.90 300.30 L 523.50 302.90 L 524.30 304.40 L 524.70 306.00 L 524.70 307.70 L 524.20 309.40 L 523.10 311.10 L 517.30 316.60 L 496.00 335.50 L 494.20 336.90 L 491.00 338.50 L 488.10 338.50 L 485.30 337.70 L 482.80 335.30 L 482.00 333.40 L 481.60 331.30 L 481.90 329.20 L 482.40 327.90 L 484.30 325.70 L 512.70 300.60 Z" fill="#24284a" fill-rule="nonzero" node-id="95" stroke="none" target-height="39.399994" target-width="43.100006" target-x="481.6" target-y="299.1"></path><path d="M 1040.40 335.10 L 1043.40 334.40 L 1046.60 334.30 L 1090.70 334.20 L 1095.80 334.70 L 1097.40 335.20 L 1098.70 336.10 L 1100.70 339.00 L 1101.20 340.60 L 1101.20 342.40 L 1100.20 345.60 L 1097.90 348.10 L 1096.40 348.80 L 1094.60 349.10 L 1083.30 349.50 L 1045.40 349.50 L 1041.50 349.00 L 1039.80 348.30 L 1038.20 347.10 L 1037.10 345.90 L 1036.10 342.90 L 1036.10 341.30 L 1036.90 338.30 L 1038.90 335.90 L 1040.40 335.10 Z" fill="#24284a" fill-rule="nonzero" node-id="97" stroke="none" target-height="15.299988" target-width="65.099976" target-x="1036.1" target-y="334.2"></path><path d="M 687.20 379.30 L 688.90 378.50 L 690.80 378.10 L 694.60 378.20 L 702.90 379.10 L 711.00 380.50 L 721.70 383.50 L 731.90 387.70 L 736.70 390.30 L 741.40 393.40 L 745.90 397.00 L 747.90 399.10 L 749.50 401.50 L 749.90 404.60 L 749.00 407.60 L 747.00 410.00 L 744.20 411.30 L 742.60 411.40 L 740.50 410.70 L 738.60 409.60 L 731.70 404.30 L 727.60 401.70 L 723.30 399.50 L 714.20 396.10 L 704.70 393.90 L 697.50 392.90 L 690.30 392.30 L 687.40 391.40 L 686.20 390.50 L 684.90 388.80 L 684.10 386.80 L 683.90 384.70 L 684.30 382.60 L 685.00 381.40 L 687.20 379.30 Z" fill="#24284a" fill-rule="nonzero" node-id="99" stroke="none" target-height="33.299988" target-width="66" target-x="683.9" target-y="378.1"></path><path d="M 260.50 407.20 L 262.50 407.00 L 264.40 407.20 L 268.10 408.20 L 298.20 417.70 L 301.80 419.60 L 303.20 420.90 L 304.30 422.70 L 304.70 424.40 L 304.70 426.00 L 304.20 427.70 L 302.30 430.40 L 299.40 432.20 L 297.80 432.40 L 296.00 432.20 L 289.80 430.50 L 262.00 421.90 L 257.70 419.70 L 256.70 418.80 L 255.40 416.50 L 255.10 414.60 L 255.40 412.60 L 256.00 410.80 L 257.10 409.20 L 258.70 407.90 L 260.50 407.20 Z" fill="#24284a" fill-rule="nonzero" node-id="101" stroke="none" target-height="25.399994" target-width="49.600006" target-x="255.1" target-y="407"></path><path d="M 687.10 420.50 L 689.10 420.10 L 691.10 420.20 L 693.00 420.90 L 694.70 422.10 L 696.00 423.70 L 696.80 425.50 L 696.50 429.20 L 694.20 436.70 L 692.70 444.80 L 692.50 448.90 L 692.90 452.90 L 694.00 456.90 L 694.90 458.60 L 697.50 460.80 L 699.90 461.70 L 705.40 462.30 L 711.40 462.10 L 724.70 458.90 L 728.10 458.50 L 729.60 458.70 L 732.10 460.20 L 733.40 461.90 L 734.30 463.90 L 734.60 466.00 L 734.20 468.10 L 732.80 470.50 L 731.50 471.50 L 724.90 474.20 L 716.20 476.10 L 710.80 476.60 L 700.10 476.50 L 694.60 475.50 L 689.50 473.40 L 685.20 470.10 L 683.40 468.10 L 681.90 465.80 L 680.70 463.20 L 678.90 456.20 L 678.50 452.50 L 678.30 447.10 L 678.80 441.60 L 680.70 430.80 L 681.90 426.80 L 683.80 423.10 L 685.30 421.60 L 687.10 420.50 Z" fill="#24284a" fill-rule="nonzero" node-id="103" stroke="none" target-height="56.5" target-width="56.299988" target-x="678.3" target-y="420.1"></path><path d="M 1026.90 429.60 L 1028.60 429.20 L 1030.20 429.10 L 1033.40 430.00 L 1077.00 449.70 L 1080.70 451.70 L 1082.30 453.10 L 1083.60 454.70 L 1084.50 457.20 L 1084.40 458.70 L 1083.40 461.70 L 1082.50 462.90 L 1080.00 464.70 L 1077.00 465.30 L 1074.00 464.60 L 1026.40 443.00 L 1024.50 441.60 L 1023.00 439.70 L 1022.30 437.80 L 1022.30 435.80 L 1022.80 433.80 L 1023.80 432.00 L 1025.20 430.60 L 1026.90 429.60 Z" fill="#24284a" fill-rule="nonzero" node-id="105" stroke="none" target-height="36.19998" target-width="62.200012" target-x="1022.3" target-y="429.1"></path><path d="M 991.20 497.60 L 992.60 496.90 L 995.50 496.50 L 997.60 497.00 L 999.50 498.10 L 1001.20 499.60 L 1057.50 581.60 L 1059.30 584.80 L 1059.90 586.40 L 1060.00 588.00 L 1058.90 591.20 L 1056.70 593.70 L 1055.30 594.50 L 1053.70 595.00 L 1050.60 594.80 L 1048.20 593.60 L 1045.50 590.60 L 992.40 513.40 L 990.20 510.00 L 988.30 506.30 L 987.80 504.70 L 987.70 503.10 L 988.10 501.50 L 989.90 498.70 L 991.20 497.60 Z" fill="#24284a" fill-rule="nonzero" node-id="107" stroke="none" target-height="98.5" target-width="72.29999" target-x="987.7" target-y="496.5"></path><path d="M 659.10 521.50 L 660.50 520.90 L 663.10 520.80 L 665.00 521.30 L 675.40 525.80 L 680.20 527.10 L 685.10 527.80 L 690.00 528.10 L 694.90 527.80 L 699.90 527.00 L 704.70 525.70 L 709.30 524.00 L 715.20 521.20 L 718.10 521.10 L 720.10 521.80 L 721.80 523.10 L 723.10 524.90 L 723.90 526.90 L 723.80 529.70 L 723.10 531.10 L 720.10 534.50 L 715.40 537.30 L 712.20 538.50 L 705.70 540.40 L 700.50 541.40 L 689.80 542.20 L 684.50 542.00 L 679.20 541.40 L 673.90 540.30 L 668.80 538.70 L 663.90 536.70 L 659.20 534.20 L 657.70 533.10 L 656.60 531.80 L 655.60 528.70 L 655.90 525.40 L 656.60 523.90 L 657.70 522.60 L 659.10 521.50 Z" fill="#24284a" fill-rule="nonzero" node-id="109" stroke="none" target-height="21.400024" target-width="68.30005" target-x="655.6" target-y="520.8"></path><path d="M 303.00 525.70 L 305.00 525.20 L 306.90 525.30 L 308.70 526.00 L 310.30 527.10 L 311.60 528.60 L 312.50 530.30 L 312.90 532.20 L 312.70 534.20 L 312.10 536.00 L 310.90 537.50 L 307.60 539.60 L 264.20 556.50 L 260.90 557.60 L 257.60 558.30 L 255.90 558.20 L 254.30 557.70 L 252.00 556.20 L 250.30 553.20 L 250.00 551.10 L 250.30 549.10 L 251.20 547.20 L 252.80 545.40 L 254.80 544.10 L 259.20 542.20 L 303.00 525.70 Z" fill="#24284a" fill-rule="nonzero" node-id="111" stroke="none" target-height="33.099976" target-width="62.899994" target-x="250" target-y="525.2"></path><path d="M 943.30 552.70 L 945.70 552.10 L 948.00 552.10 L 950.30 552.60 L 952.60 553.50 L 954.50 554.80 L 956.30 556.40 L 957.80 558.40 L 958.80 560.50 L 959.40 562.80 L 959.50 565.10 L 959.20 567.30 L 958.50 569.40 L 955.90 573.10 L 952.30 575.70 L 950.30 576.50 L 948.00 576.80 L 945.20 576.70 L 942.40 575.90 L 939.90 574.60 L 937.70 572.80 L 935.60 569.70 L 934.50 565.70 L 934.50 563.70 L 935.50 559.50 L 937.90 556.00 L 939.50 554.60 L 943.30 552.70 Z" fill="#24284a" fill-rule="nonzero" node-id="113" stroke="none" target-height="24.700012" target-width="25" target-x="934.5" target-y="552.1"></path><path d="M 420.50 595.30 L 422.30 594.80 L 424.30 594.80 L 426.10 595.30 L 427.80 596.20 L 429.20 597.50 L 430.20 599.10 L 430.80 601.30 L 431.60 623.40 L 431.80 638.90 L 431.70 640.30 L 430.60 642.70 L 429.30 644.10 L 427.50 645.10 L 425.60 645.70 L 423.60 645.90 L 421.70 645.50 L 419.90 644.50 L 418.40 643.30 L 417.50 641.80 L 416.70 638.30 L 415.60 602.20 L 416.60 598.80 L 417.60 597.40 L 418.80 596.20 L 420.50 595.30 Z" fill="#24284a" fill-rule="nonzero" node-id="115" stroke="none" target-height="51.100037" target-width="16.199982" target-x="415.6" target-y="594.8"></path><path d="M 355.10 601.90 L 356.60 601.60 L 359.50 601.90 L 361.50 602.80 L 363.20 604.30 L 364.60 606.80 L 365.00 608.20 L 364.90 610.20 L 364.30 612.10 L 362.00 615.40 L 322.90 661.50 L 320.60 664.00 L 317.90 666.10 L 316.40 666.60 L 313.20 666.60 L 311.60 666.10 L 309.00 664.30 L 307.40 661.60 L 307.10 659.90 L 307.20 658.40 L 308.30 655.70 L 310.90 652.10 L 351.30 604.60 L 353.10 603.00 L 355.10 601.90 Z" fill="#24284a" fill-rule="nonzero" node-id="117" stroke="none" target-height="65" target-width="57.899994" target-x="307.1" target-y="601.6"></path><path d="M 557.90 904.60 L 560.90 903.60 L 562.40 903.70 L 565.40 904.60 L 567.80 906.70 L 568.50 908.00 L 569.30 911.10 L 568.40 914.00 L 563.00 921.80 L 560.50 925.90 L 558.40 930.20 L 556.10 937.70 L 555.50 944.00 L 555.70 946.50 L 557.60 951.00 L 561.40 957.40 L 561.70 959.10 L 561.50 960.80 L 560.80 962.30 L 558.60 964.80 L 555.50 966.30 L 553.80 966.30 L 552.10 966.00 L 549.80 964.80 L 547.90 963.20 L 546.20 961.30 L 542.50 954.60 L 541.40 950.60 L 540.70 946.60 L 540.60 942.60 L 541.50 934.50 L 542.50 930.50 L 544.60 924.70 L 547.10 919.10 L 551.80 911.30 L 555.60 906.50 L 557.90 904.60 Z" fill="#24284a" fill-rule="nonzero" node-id="119" stroke="none" target-height="62.700012" target-width="28.700012" target-x="540.6" target-y="903.6"></path><path d="M 815.00 937.40 L 814.80 934.30 L 815.20 931.30 L 816.00 928.40 L 818.70 922.80 L 820.40 920.30 L 827.30 935.30 L 832.80 944.80 L 839.60 953.20 L 847.10 960.20 L 851.30 963.20 L 857.10 966.80 L 863.20 970.00 L 869.60 972.60 L 876.20 974.80 L 882.90 976.60 L 891.20 978.40 L 892.80 979.00 L 895.50 981.10 L 896.30 982.50 L 896.90 984.10 L 896.70 987.30 L 895.20 990.10 L 892.70 992.10 L 889.70 992.70 L 881.20 991.10 L 867.60 987.30 L 861.00 984.80 L 854.60 981.90 L 848.40 978.60 L 842.40 974.80 L 836.80 970.60 L 831.50 965.90 L 824.10 957.60 L 820.90 953.00 L 818.20 948.10 L 815.70 941.10 L 815.00 937.40 Z" fill="#24284a" fill-rule="nonzero" node-id="121" stroke="none" target-height="72.400024" target-width="82.10004" target-x="814.8" target-y="920.3"></path><path d="M 596.60 946.10 L 598.80 945.60 L 601.00 945.60 L 605.10 946.80 L 606.90 947.90 L 610.10 950.90 L 612.00 954.70 L 612.40 956.90 L 612.50 959.00 L 611.20 963.50 L 610.00 965.40 L 608.50 967.00 L 604.60 969.30 L 600.20 970.20 L 597.90 970.10 L 595.70 969.60 L 593.70 968.80 L 591.80 967.50 L 590.20 965.80 L 588.90 964.00 L 588.00 962.20 L 587.30 958.20 L 587.40 956.20 L 588.70 952.30 L 591.10 949.00 L 592.70 947.70 L 596.60 946.10 Z" fill="#24284a" fill-rule="nonzero" node-id="123" stroke="none" target-height="24.600037" target-width="25.200012" target-x="587.3" target-y="945.6"></path><path d="M 673.70 233.00 L 670.70 228.60 L 668.10 224.00 L 666.00 219.20 L 664.30 214.20 L 663.10 209.10 L 662.20 203.80 L 661.80 198.50 L 662.10 188.00 L 669.20 195.00 L 676.70 201.60 L 684.60 207.70 L 692.80 213.50 L 701.30 218.80 L 710.00 223.50 L 719.10 227.70 L 728.40 231.30 L 738.50 234.30 L 748.70 236.60 L 759.10 238.60 L 811.60 246.20 L 847.00 252.10 L 875.10 258.30 L 883.20 260.70 L 891.20 263.80 L 895.00 265.80 L 898.40 268.20 L 902.30 272.20 L 904.00 274.60 L 905.30 277.30 L 906.20 280.10 L 906.70 282.90 L 907.40 300.50 L 909.70 302.70 L 912.80 304.00 L 915.90 304.00 L 917.40 303.50 L 918.70 302.70 L 919.80 301.30 L 923.10 296.40 L 925.90 291.30 L 935.70 269.90 L 936.30 277.80 L 936.30 285.70 L 935.80 293.60 L 934.90 301.50 L 933.40 309.20 L 930.40 321.10 L 926.30 333.40 L 925.40 337.60 L 925.10 341.90 L 921.90 336.80 L 919.80 334.70 L 917.40 333.00 L 913.80 331.60 L 908.20 330.80 L 904.80 330.80 L 901.30 331.20 L 898.00 332.20 L 894.80 333.50 L 891.70 335.20 L 889.00 337.20 L 886.50 339.60 L 884.30 342.30 L 882.60 345.30 L 881.30 348.40 L 880.50 351.90 L 880.10 355.70 L 880.20 359.50 L 880.80 363.20 L 881.90 366.80 L 883.50 370.20 L 885.40 373.50 L 887.80 376.50 L 890.40 379.20 L 893.30 381.70 L 896.50 383.80 L 899.80 385.50 L 903.40 386.70 L 907.00 387.50 L 910.80 387.70 L 914.60 387.40 L 918.00 386.60 L 921.10 385.30 L 924.10 383.60 L 926.80 381.40 L 929.20 379.00 L 931.30 376.20 L 933.00 373.20 L 934.30 370.00 L 935.20 366.70 L 935.50 360.60 L 934.30 353.00 L 933.10 348.60 L 952.00 337.60 L 958.60 334.30 L 965.30 331.40 L 972.20 329.00 L 967.60 342.90 L 965.60 352.40 L 965.20 357.30 L 965.40 362.10 L 965.90 366.70 L 969.60 385.30 L 970.20 395.10 L 969.90 400.00 L 968.90 407.30 L 967.40 414.60 L 963.50 428.90 L 961.30 435.90 L 955.80 449.40 L 952.60 456.00 L 947.80 464.50 L 942.50 472.70 L 930.00 489.20 L 922.90 497.70 L 912.80 508.20 L 907.30 513.10 L 901.60 517.50 L 895.40 521.50 L 888.90 524.90 L 883.80 526.90 L 878.60 528.50 L 873.30 529.40 L 867.90 529.90 L 862.50 529.90 L 857.10 529.40 L 851.70 528.50 L 846.50 527.10 L 841.40 525.20 L 849.40 523.00 L 853.30 521.40 L 860.50 517.20 L 866.90 512.00 L 869.80 508.90 L 874.80 501.80 L 876.90 497.70 L 878.60 493.40 L 879.90 489.00 L 880.70 484.50 L 881.00 480.00 L 880.80 475.40 L 880.10 470.90 L 878.80 466.50 L 877.10 462.50 L 875.00 458.80 L 872.50 455.30 L 869.60 452.10 L 866.30 449.30 L 862.80 446.80 L 858.90 444.80 L 854.90 443.40 L 847.60 442.00 L 841.70 442.10 L 837.20 443.00 L 832.90 444.30 L 824.50 447.80 L 820.50 440.00 L 816.90 432.00 L 813.80 423.70 L 811.20 415.40 L 809.00 406.90 L 805.90 389.60 L 803.30 362.00 L 802.50 359.70 L 801.30 357.40 L 799.70 355.70 L 797.70 354.60 L 793.30 353.40 L 776.40 351.50 L 755.80 348.40 L 739.60 344.60 L 731.70 342.10 L 724.00 339.00 L 712.90 333.50 L 709.70 331.30 L 697.30 321.20 L 695.70 320.20 L 694.00 319.60 L 690.40 319.30 L 679.00 320.10 L 671.20 320.10 L 663.30 319.60 L 655.60 318.60 L 647.90 317.10 L 640.40 315.10 L 633.00 312.50 L 625.80 309.40 L 618.90 305.70 L 627.20 304.70 L 635.40 303.20 L 651.50 299.40 L 655.10 298.20 L 658.30 296.30 L 659.40 295.00 L 660.20 293.20 L 661.00 288.80 L 660.70 287.40 L 660.10 286.20 L 658.90 285.20 L 644.20 278.00 L 640.70 276.00 L 637.30 273.50 L 633.10 270.00 L 629.20 266.10 L 625.80 261.90 L 622.80 257.40 L 620.20 252.70 L 617.90 247.70 L 614.50 237.30 L 612.60 226.50 L 612.10 215.70 L 615.60 221.40 L 619.40 226.80 L 623.60 232.00 L 628.10 236.90 L 632.90 241.40 L 638.10 245.50 L 643.70 249.20 L 649.50 252.40 L 655.60 255.00 L 661.90 257.00 L 668.30 258.40 L 672.70 259.10 L 681.40 259.40 L 683.10 259.30 L 684.50 258.70 L 685.60 257.80 L 687.00 256.10 L 688.00 253.90 L 688.80 249.30 L 686.50 246.40 L 676.00 235.90 L 673.70 233.00 Z" fill="#7d6963" fill-rule="nonzero" node-id="125" stroke="none" target-height="341.90002" target-width="360.10004" target-x="612.1" target-y="188"></path><path d="M 880.50 351.90 L 881.30 348.40 L 882.60 345.30 L 884.30 342.30 L 886.50 339.60 L 889.00 337.20 L 891.70 335.20 L 894.80 333.50 L 898.00 332.20 L 901.30 331.20 L 904.80 330.80 L 908.20 330.80 L 913.80 331.60 L 917.40 333.00 L 919.80 334.70 L 921.90 336.80 L 926.00 343.40 L 927.20 344.80 L 933.10 348.60 L 935.20 357.60 L 935.50 363.60 L 935.20 366.70 L 934.30 370.00 L 933.00 373.20 L 931.30 376.20 L 929.20 379.00 L 926.80 381.40 L 924.10 383.60 L 921.10 385.30 L 918.00 386.60 L 914.60 387.40 L 910.80 387.70 L 907.00 387.50 L 903.40 386.70 L 899.80 385.50 L 896.50 383.80 L 893.30 381.70 L 890.40 379.20 L 887.80 376.50 L 885.40 373.50 L 883.50 370.20 L 881.90 366.80 L 880.80 363.20 L 880.20 359.50 L 880.10 355.70 L 880.50 351.90 Z" fill="#fd7831" fill-rule="nonzero" node-id="127" stroke="none" target-height="56.900024" target-width="55.400024" target-x="880.1" target-y="330.8"></path><path d="M 386.30 426.40 L 388.70 423.00 L 391.50 419.90 L 397.90 414.50 L 400.60 421.40 L 402.80 428.50 L 404.70 435.80 L 406.10 443.20 L 407.00 450.60 L 407.50 458.10 L 407.30 465.50 L 406.60 472.90 L 405.30 480.20 L 403.90 485.60 L 399.90 496.10 L 397.40 501.10 L 393.60 497.90 L 390.30 494.40 L 387.40 490.50 L 384.90 486.30 L 382.90 481.80 L 381.30 477.20 L 380.10 472.40 L 379.30 467.60 L 378.80 456.50 L 379.00 450.20 L 379.90 443.90 L 381.30 437.80 L 382.60 433.90 L 386.30 426.40 Z" fill="#fd7831" fill-rule="nonzero" node-id="129" stroke="none" target-height="86.600006" target-width="28.700012" target-x="378.8" target-y="414.5"></path><path d="M 708.60 482.30 L 713.40 481.60 L 718.20 481.50 L 740.40 483.60 L 743.40 484.20 L 746.30 485.20 L 748.90 486.70 L 750.40 487.90 L 751.70 489.40 L 754.00 493.60 L 754.70 496.10 L 754.90 498.70 L 754.60 501.30 L 753.90 503.80 L 752.80 506.20 L 751.30 508.50 L 749.60 510.40 L 747.50 512.00 L 745.20 513.20 L 742.70 513.90 L 740.00 514.00 L 709.10 510.80 L 707.00 510.10 L 703.20 507.90 L 700.30 504.70 L 698.50 500.80 L 698.00 496.20 L 698.20 493.90 L 699.90 489.60 L 702.70 485.90 L 706.50 483.20 L 708.60 482.30 Z" fill="#fd7831" fill-rule="nonzero" node-id="131" stroke="none" target-height="32.5" target-width="56.900024" target-x="698" target-y="481.5"></path><path d="M 669.40 334.70 L 676.20 334.80 L 689.90 333.70 L 695.30 338.50 L 701.00 342.80 L 707.10 346.70 L 713.50 350.20 L 720.00 353.20 L 726.80 355.70 L 736.90 358.90 L 747.10 361.50 L 757.40 363.50 L 767.80 365.10 L 788.70 367.20 L 789.30 377.70 L 790.40 388.10 L 792.00 398.60 L 794.10 408.90 L 796.70 419.10 L 799.90 429.10 L 802.70 436.50 L 805.90 443.70 L 809.40 450.70 L 813.30 457.60 L 810.50 462.70 L 808.40 468.20 L 808.30 469.60 L 809.00 472.00 L 810.20 473.60 L 811.90 474.80 L 813.90 475.60 L 815.80 475.80 L 818.30 475.00 L 819.40 474.10 L 826.40 464.60 L 830.50 460.90 L 835.80 457.60 L 838.70 456.40 L 844.70 455.20 L 847.80 455.30 L 850.80 455.80 L 853.90 456.80 L 856.70 458.40 L 859.20 460.20 L 861.50 462.50 L 865.00 467.60 L 867.20 473.60 L 868.10 479.90 L 868.00 483.10 L 866.70 489.30 L 865.00 493.10 L 862.90 496.70 L 860.40 500.10 L 857.40 503.10 L 854.20 505.80 L 850.70 508.10 L 846.90 510.00 L 843.00 511.30 L 838.80 512.20 L 834.10 512.80 L 818.00 512.60 L 812.70 514.90 L 813.10 523.90 L 816.10 526.80 L 819.50 529.20 L 826.70 533.50 L 833.00 536.80 L 839.60 539.60 L 846.40 541.80 L 851.60 543.10 L 862.20 544.50 L 867.60 544.60 L 874.80 612.80 L 866.90 613.20 L 859.00 614.10 L 851.20 615.60 L 843.50 617.60 L 836.00 620.10 L 828.70 623.10 L 821.50 626.60 L 814.60 630.50 L 798.80 577.60 L 796.50 572.80 L 794.90 570.70 L 792.20 568.60 L 790.50 567.90 L 786.80 567.30 L 782.30 568.20 L 779.60 569.30 L 766.50 575.80 L 758.30 579.40 L 749.80 582.40 L 741.20 585.00 L 732.40 586.90 L 723.50 588.20 L 716.80 588.70 L 710.10 588.70 L 703.40 588.40 L 696.70 587.50 L 689.80 586.20 L 682.90 584.40 L 676.20 582.20 L 669.70 579.50 L 663.40 576.30 L 657.40 572.60 L 649.00 566.10 L 641.60 558.50 L 638.30 554.40 L 635.40 550.00 L 630.40 540.70 L 634.90 536.50 L 636.20 534.90 L 637.90 531.20 L 640.40 521.20 L 641.60 511.00 L 642.40 500.70 L 666.80 502.70 L 668.40 502.60 L 669.90 502.10 L 671.20 501.20 L 673.20 498.60 L 673.70 497.10 L 673.90 495.50 L 673.70 493.90 L 673.00 492.40 L 672.00 491.00 L 669.20 489.10 L 664.10 488.00 L 643.00 486.70 L 643.30 482.90 L 643.40 471.10 L 644.10 463.40 L 645.00 459.70 L 649.10 449.30 L 653.30 435.50 L 658.10 414.30 L 658.10 412.60 L 657.80 411.10 L 657.10 409.80 L 654.90 407.70 L 652.00 406.50 L 650.50 406.30 L 647.50 406.90 L 646.30 407.80 L 645.10 409.10 L 643.60 412.70 L 642.50 416.60 L 639.30 432.20 L 636.30 429.90 L 630.00 426.00 L 619.60 421.70 L 621.30 405.70 L 632.40 396.90 L 635.40 394.90 L 645.20 390.30 L 646.60 389.20 L 647.70 387.70 L 648.10 386.20 L 648.30 384.70 L 647.40 381.80 L 645.50 379.50 L 642.90 378.10 L 641.30 377.80 L 639.00 377.90 L 636.70 378.50 L 628.00 382.30 L 631.20 373.30 L 635.00 364.50 L 637.90 358.80 L 644.70 348.00 L 648.60 343.00 L 652.90 338.30 L 657.70 333.90 L 660.60 333.90 L 669.40 334.70 Z M 687.20 379.30 L 685.00 381.40 L 684.30 382.60 L 683.90 384.70 L 684.10 386.80 L 684.90 388.80 L 686.20 390.50 L 687.40 391.40 L 690.30 392.30 L 697.50 392.90 L 704.70 393.90 L 709.50 394.90 L 718.80 397.60 L 723.30 399.50 L 727.60 401.70 L 731.70 404.30 L 738.60 409.60 L 740.50 410.70 L 742.60 411.40 L 745.70 410.80 L 748.10 408.90 L 749.60 406.10 L 749.90 403.00 L 749.50 401.50 L 747.90 399.10 L 745.90 397.00 L 741.40 393.40 L 736.70 390.30 L 731.90 387.70 L 721.70 383.50 L 711.00 380.50 L 702.90 379.10 L 694.60 378.20 L 690.80 378.10 L 688.90 378.50 L 687.20 379.30 Z M 687.10 420.50 L 685.30 421.60 L 683.80 423.10 L 681.90 426.80 L 680.70 430.80 L 678.80 441.60 L 678.30 447.10 L 678.50 452.50 L 678.90 456.20 L 680.70 463.20 L 681.90 465.80 L 683.40 468.10 L 687.30 471.90 L 689.50 473.40 L 694.60 475.50 L 700.10 476.50 L 705.40 476.70 L 710.80 476.60 L 716.20 476.10 L 721.50 475.20 L 728.30 473.00 L 731.50 471.50 L 732.80 470.50 L 734.20 468.10 L 734.60 466.00 L 734.30 463.90 L 733.40 461.90 L 732.10 460.20 L 730.90 459.30 L 728.10 458.50 L 724.70 458.90 L 714.80 461.40 L 708.00 462.30 L 702.60 462.20 L 699.90 461.70 L 697.50 460.80 L 696.10 459.80 L 694.90 458.60 L 694.00 456.90 L 692.90 452.90 L 692.50 448.90 L 692.70 444.80 L 693.30 440.70 L 696.50 429.20 L 696.80 425.50 L 696.00 423.70 L 694.70 422.10 L 693.00 420.90 L 691.10 420.20 L 689.10 420.10 L 687.10 420.50 Z M 708.60 482.30 L 706.50 483.20 L 702.70 485.90 L 699.90 489.60 L 698.20 493.90 L 698.00 496.20 L 698.50 500.80 L 700.30 504.70 L 703.20 507.90 L 707.00 510.10 L 709.10 510.80 L 732.80 513.40 L 740.00 514.00 L 742.70 513.90 L 745.20 513.20 L 747.50 512.00 L 749.60 510.40 L 751.30 508.50 L 752.80 506.20 L 753.90 503.80 L 754.60 501.30 L 754.90 498.70 L 754.70 496.10 L 754.00 493.60 L 752.80 491.20 L 750.40 487.90 L 748.90 486.70 L 746.30 485.20 L 743.40 484.20 L 740.40 483.60 L 718.20 481.50 L 713.40 481.60 L 708.60 482.30 Z M 659.10 521.50 L 657.70 522.60 L 656.60 523.90 L 655.90 525.40 L 655.60 528.70 L 656.60 531.80 L 657.70 533.10 L 659.20 534.20 L 663.90 536.70 L 668.80 538.70 L 673.90 540.30 L 679.20 541.40 L 684.50 542.00 L 689.80 542.20 L 695.20 542.00 L 705.70 540.40 L 715.40 537.30 L 718.30 535.80 L 721.70 533.00 L 723.10 531.10 L 724.00 528.30 L 723.90 526.90 L 723.10 524.90 L 721.80 523.10 L 720.10 521.80 L 718.10 521.10 L 715.20 521.20 L 709.30 524.00 L 704.70 525.70 L 699.90 527.00 L 694.90 527.80 L 690.00 528.10 L 685.10 527.80 L 680.20 527.10 L 675.40 525.80 L 665.00 521.30 L 663.10 520.80 L 660.50 520.90 L 659.10 521.50 Z" fill="#fde0ca" fill-rule="nonzero" node-id="133" stroke="none" target-height="296.8" target-width="255.20001" target-x="619.6" target-y="333.7"></path><path d="M 512.00 490.60 L 512.20 488.80 L 512.80 486.90 L 513.80 485.20 L 516.20 483.30 L 518.70 482.80 L 520.80 483.30 L 522.50 484.40 L 524.00 485.80 L 527.60 491.10 L 531.50 498.80 L 542.10 522.50 L 545.90 530.30 L 550.10 537.90 L 555.70 546.40 L 559.50 549.80 L 562.60 550.90 L 564.30 550.90 L 567.50 550.10 L 570.30 548.10 L 571.30 546.80 L 574.00 539.00 L 579.90 520.20 L 583.50 512.30 L 586.60 507.40 L 588.60 506.30 L 590.30 506.20 L 592.00 506.80 L 593.00 507.60 L 594.40 509.60 L 596.30 514.70 L 598.70 525.20 L 605.50 569.90 L 607.00 585.80 L 607.00 592.20 L 605.90 605.10 L 604.70 611.30 L 601.50 623.80 L 604.40 628.90 L 608.90 639.80 L 614.20 656.80 L 621.30 682.00 L 627.90 707.40 L 634.00 732.90 L 639.70 758.50 L 643.90 784.30 L 645.30 790.70 L 647.10 797.00 L 648.60 800.40 L 650.50 803.70 L 653.70 807.60 L 657.70 810.50 L 660.00 811.50 L 662.50 812.10 L 666.10 812.30 L 669.50 812.10 L 672.80 811.40 L 679.20 808.90 L 682.20 807.20 L 690.70 801.30 L 694.90 797.60 L 702.40 789.70 L 707.40 783.20 L 712.20 776.50 L 725.50 755.60 L 739.50 734.90 L 749.60 721.40 L 756.60 724.00 L 763.30 727.10 L 769.70 730.80 L 775.80 734.90 L 781.60 739.50 L 787.10 744.50 L 792.10 749.90 L 796.80 755.60 L 801.00 761.60 L 807.70 773.30 L 813.30 785.50 L 796.70 802.70 L 779.30 819.00 L 770.20 826.80 L 750.80 842.30 L 740.40 849.90 L 729.70 857.10 L 718.80 864.00 L 707.60 870.30 L 696.10 876.00 L 679.80 882.80 L 671.40 885.60 L 662.80 887.70 L 657.10 888.70 L 651.20 889.40 L 645.30 889.60 L 641.00 889.30 L 636.90 888.60 L 633.00 887.30 L 629.10 885.60 L 625.50 883.50 L 618.80 878.30 L 615.90 875.40 L 607.30 864.60 L 602.00 856.80 L 597.20 848.70 L 592.80 840.30 L 588.80 831.70 L 585.10 822.90 L 580.30 809.50 L 576.10 795.90 L 572.50 782.30 L 569.30 768.60 L 566.70 754.70 L 564.50 740.80 L 561.10 712.80 L 559.40 691.70 L 557.00 651.80 L 556.20 645.60 L 554.90 639.50 L 553.00 633.50 L 550.80 628.60 L 548.00 623.90 L 544.80 619.60 L 541.20 615.50 L 537.30 611.70 L 525.00 601.30 L 517.30 594.00 L 510.00 586.20 L 513.70 583.60 L 515.70 581.30 L 516.60 578.10 L 516.30 576.40 L 514.60 573.20 L 508.10 564.50 L 504.20 558.50 L 500.80 552.30 L 497.80 545.80 L 495.20 539.10 L 491.20 526.00 L 489.10 515.30 L 488.70 506.60 L 489.00 502.30 L 489.80 498.00 L 491.10 493.80 L 492.30 491.20 L 494.20 489.10 L 495.90 488.80 L 496.90 489.10 L 497.90 498.70 L 499.30 508.30 L 501.20 517.90 L 503.00 525.10 L 507.60 538.90 L 510.40 545.70 L 513.50 552.20 L 517.10 558.60 L 521.10 564.70 L 525.50 570.50 L 527.00 571.80 L 528.50 572.50 L 530.10 572.60 L 531.80 572.40 L 534.90 570.90 L 537.20 568.40 L 537.80 566.90 L 538.00 565.30 L 537.80 563.70 L 536.90 561.90 L 529.00 549.90 L 525.60 543.60 L 522.50 537.10 L 519.90 530.40 L 515.50 515.50 L 513.60 507.30 L 512.70 501.80 L 512.00 490.60 Z" fill="#fde0ca" fill-rule="nonzero" node-id="135" stroke="none" target-height="406.8" target-width="324.59998" target-x="488.7" target-y="482.8"></path><path d="M 619.70 608.00 L 622.20 611.60 L 625.00 614.80 L 629.50 618.30 L 634.60 620.80 L 640.30 621.90 L 644.80 636.20 L 649.90 650.30 L 655.60 664.20 L 661.70 677.80 L 668.40 691.20 L 675.60 704.40 L 686.10 722.50 L 677.30 722.50 L 672.80 722.00 L 668.50 721.20 L 664.30 719.90 L 660.30 718.20 L 654.90 714.60 L 652.50 712.30 L 650.20 709.70 L 647.70 705.60 L 643.60 697.10 L 641.00 690.40 L 632.80 665.90 L 628.10 653.80 L 627.00 649.60 L 626.00 641.10 L 625.00 637.10 L 623.40 633.30 L 621.90 630.60 L 617.90 625.90 L 615.50 623.80 L 619.70 608.00 Z" fill="#fde0ca" fill-rule="nonzero" node-id="137" stroke="none" target-height="114.5" target-width="70.599976" target-x="615.5" target-y="608"></path><path d="M 671.90 630.70 L 686.20 632.40 L 684.60 641.90 L 683.70 651.50 L 683.30 661.10 L 671.90 630.70 Z" fill="#fde0ca" fill-rule="nonzero" node-id="139" stroke="none" target-height="30.399963" target-width="14.299988" target-x="671.9" target-y="630.7"></path><path d="M 541.50 391.90 L 557.60 391.10 L 565.60 391.10 L 573.70 391.40 L 589.80 392.90 L 592.20 399.50 L 594.10 406.30 L 598.10 423.60 L 599.50 427.10 L 600.60 428.50 L 602.20 429.60 L 606.20 431.50 L 622.80 438.00 L 626.70 440.10 L 628.50 441.90 L 629.20 444.90 L 629.50 450.70 L 628.90 486.70 L 628.20 498.70 L 627.10 510.70 L 625.50 522.60 L 624.60 526.20 L 623.70 527.60 L 621.90 529.50 L 619.80 531.10 L 615.00 533.40 L 611.00 514.50 L 609.70 509.80 L 606.60 502.50 L 605.00 499.70 L 601.40 495.30 L 597.50 492.90 L 590.70 491.00 L 591.50 479.40 L 591.90 467.60 L 591.80 459.70 L 591.20 451.90 L 590.20 444.20 L 587.60 432.90 L 585.70 427.30 L 583.50 421.80 L 582.10 419.40 L 580.40 417.30 L 578.40 415.50 L 576.10 414.10 L 573.60 413.10 L 570.80 412.60 L 555.30 411.50 L 524.00 411.80 L 525.40 400.60 L 527.30 395.30 L 530.60 393.90 L 534.20 393.00 L 541.50 391.90 Z" fill="#446ea5" fill-rule="nonzero" node-id="141" stroke="none" target-height="142.30002" target-width="105.5" target-x="524" target-y="391.1"></path><path d="M 361.70 407.00 L 364.10 404.20 L 369.20 400.40 L 373.70 398.50 L 376.20 397.90 L 378.60 397.80 L 382.90 398.40 L 384.50 399.20 L 390.10 403.50 L 385.70 406.80 L 381.80 410.40 L 378.40 414.50 L 375.40 418.90 L 372.80 423.50 L 370.50 428.40 L 368.80 433.50 L 367.40 438.60 L 366.40 443.90 L 365.70 450.10 L 365.40 456.30 L 365.60 462.60 L 366.20 468.90 L 367.30 475.00 L 368.80 481.10 L 370.80 487.00 L 373.30 492.70 L 376.40 498.20 L 380.30 503.60 L 386.40 509.20 L 390.30 512.30 L 386.50 515.60 L 384.50 517.00 L 382.20 518.10 L 379.90 518.80 L 374.10 518.60 L 371.20 517.80 L 368.40 516.50 L 363.60 512.60 L 361.50 510.20 L 358.80 506.20 L 356.60 502.20 L 354.10 496.40 L 352.10 490.40 L 350.40 484.40 L 348.20 471.90 L 347.40 459.30 L 347.80 446.70 L 348.70 439.70 L 350.10 432.70 L 352.00 425.90 L 354.50 419.20 L 358.90 410.90 L 361.70 407.00 Z" fill="#446ea5" fill-rule="nonzero" node-id="143" stroke="none" target-height="121" target-width="42.899994" target-x="347.4" target-y="397.8"></path><path d="M 547.00 425.40 L 562.80 425.90 L 568.00 426.70 L 569.40 427.20 L 570.50 428.10 L 571.30 429.30 L 573.00 433.50 L 574.80 440.10 L 576.10 446.80 L 577.50 460.40 L 577.60 474.10 L 577.00 484.40 L 575.70 494.50 L 574.90 498.60 L 571.90 506.20 L 567.60 514.60 L 565.50 519.60 L 561.90 529.60 L 551.80 508.40 L 551.10 506.30 L 550.70 502.10 L 552.70 489.50 L 553.70 478.70 L 554.00 467.90 L 553.90 460.60 L 552.50 446.30 L 551.20 439.20 L 549.30 432.20 L 547.00 425.40 Z" fill="#446ea5" fill-rule="nonzero" node-id="145" stroke="none" target-height="104.19998" target-width="30.599976" target-x="547" target-y="425.4"></path><path d="M 673.90 1027.50 L 696.70 1024.50 L 742.50 1021.20 L 739.90 1031.80 L 739.00 1038.90 L 739.10 1042.60 L 739.50 1044.10 L 741.20 1046.50 L 743.00 1047.90 L 745.10 1049.00 L 749.40 1050.60 L 762.20 1054.60 L 813.10 1072.30 L 825.90 1076.30 L 838.80 1079.90 L 851.90 1082.90 L 869.50 1086.30 L 887.20 1089.00 L 905.00 1091.20 L 922.80 1092.80 L 940.70 1093.80 L 958.60 1094.30 L 976.50 1094.30 L 994.40 1093.90 L 993.00 1109.50 L 991.10 1125.10 L 986.70 1156.20 L 946.70 1156.40 L 866.60 1155.80 L 762.30 1155.70 L 449.30 1155.80 L 457.80 1125.90 L 459.60 1121.00 L 461.90 1116.30 L 463.70 1113.40 L 468.10 1108.00 L 477.20 1099.80 L 482.10 1096.20 L 489.70 1091.10 L 497.60 1086.40 L 513.80 1077.70 L 529.00 1070.40 L 544.40 1063.60 L 560.10 1057.40 L 575.90 1051.60 L 591.90 1046.30 L 608.10 1041.60 L 624.40 1037.30 L 640.80 1033.50 L 657.30 1030.30 L 673.90 1027.50 Z" fill="#446ea5" fill-rule="nonzero" node-id="147" stroke="none" target-height="135.20001" target-width="545.10004" target-x="449.3" target-y="1021.2"></path><path d="M 804.50 655.00 L 816.70 646.40 L 823.10 642.40 L 829.70 638.80 L 836.50 635.70 L 843.50 632.90 L 850.60 630.70 L 857.90 629.00 L 865.40 627.80 L 871.20 627.40 L 877.10 627.50 L 882.90 628.00 L 888.60 629.10 L 894.20 630.60 L 899.80 632.50 L 905.10 634.90 L 910.20 637.70 L 915.10 640.90 L 919.60 644.40 L 923.80 648.20 L 927.80 652.40 L 934.70 661.40 L 937.70 666.20 L 942.80 676.50 L 944.80 681.80 L 951.90 703.10 L 958.30 724.50 L 964.10 746.10 L 969.40 767.90 L 974.10 789.80 L 978.40 811.80 L 982.20 833.90 L 985.60 856.00 L 988.60 878.20 L 984.30 877.70 L 968.00 877.70 L 956.10 877.20 L 944.30 876.10 L 932.50 874.40 L 920.80 872.10 L 909.30 869.30 L 897.90 866.00 L 886.60 862.10 L 875.40 857.80 L 864.50 853.00 L 853.80 847.80 L 843.30 842.10 L 832.90 836.10 L 822.90 829.60 L 813.10 822.80 L 803.60 815.70 L 818.70 800.50 L 822.00 801.00 L 825.10 800.90 L 828.10 800.40 L 833.80 798.10 L 840.50 793.80 L 865.30 774.50 L 888.50 757.50 L 890.70 754.70 L 891.40 752.00 L 890.80 748.90 L 890.00 747.50 L 887.60 745.60 L 884.50 744.60 L 883.00 744.70 L 879.40 746.00 L 873.80 749.70 L 828.00 784.40 L 825.00 776.10 L 821.40 768.00 L 817.20 760.10 L 809.90 748.80 L 801.50 738.40 L 791.90 729.10 L 781.40 721.00 L 775.70 717.50 L 769.90 714.30 L 763.80 711.60 L 757.40 709.30 L 767.30 694.20 L 778.50 680.00 L 784.50 673.30 L 790.90 666.90 L 797.50 660.80 L 804.50 655.00 Z" fill="#ffdc94" fill-rule="nonzero" node-id="149" stroke="none" target-height="250.79999" target-width="231.19995" target-x="757.4" target-y="627.4"></path><path d="M 775.70 660.80 L 782.50 649.90 L 786.30 644.70 L 790.40 639.80 L 793.40 636.80 L 796.60 634.20 L 800.20 631.80 L 802.40 636.70 L 802.10 638.10 L 784.00 653.10 L 775.70 660.80 Z" fill="#ffdc94" fill-rule="nonzero" node-id="151" stroke="none" target-height="29" target-width="26.700012" target-x="775.7" target-y="631.8"></path><path d="M 701.00 634.70 L 713.40 636.00 L 725.90 636.80 L 738.50 637.10 L 751.00 636.90 L 763.50 636.10 L 776.00 634.70 L 771.90 639.80 L 768.10 645.00 L 764.80 650.50 L 760.30 659.00 L 756.30 667.80 L 752.80 676.80 L 740.40 709.50 L 737.70 714.70 L 734.60 719.70 L 724.20 734.10 L 714.90 719.30 L 710.50 711.80 L 706.50 704.10 L 704.30 699.00 L 702.50 693.80 L 701.20 688.40 L 699.70 680.20 L 698.70 672.00 L 698.30 662.70 L 698.30 653.30 L 698.70 647.00 L 699.60 640.80 L 701.00 634.70 Z" fill="#ffdc94" fill-rule="nonzero" node-id="153" stroke="none" target-height="99.39996" target-width="77.70001" target-x="698.3" target-y="634.7"></path><path d="M 749.50 860.60 L 761.10 852.20 L 783.50 834.40 L 793.30 841.70 L 813.50 855.30 L 824.00 861.70 L 834.60 867.70 L 845.50 873.20 L 856.50 878.40 L 867.70 883.10 L 879.20 887.40 L 890.70 891.30 L 902.40 894.70 L 914.30 897.50 L 927.00 900.00 L 939.80 901.90 L 952.60 903.30 L 962.30 903.90 L 972.00 904.00 L 981.60 903.80 L 991.30 903.10 L 993.70 932.30 L 995.60 961.50 L 996.50 981.10 L 997.30 1020.10 L 997.10 1039.60 L 996.50 1059.10 L 995.30 1078.70 L 987.60 1079.60 L 971.90 1079.90 L 956.90 1079.80 L 926.90 1078.60 L 911.90 1077.40 L 897.00 1075.90 L 882.10 1073.90 L 867.30 1071.40 L 852.60 1068.40 L 838.00 1064.80 L 823.90 1060.70 L 768.10 1041.20 L 754.00 1037.10 L 756.10 1027.10 L 757.70 1022.30 L 761.90 1012.90 L 764.50 1008.60 L 767.50 1004.50 L 770.90 1000.70 L 777.60 994.40 L 778.80 992.70 L 779.90 989.60 L 779.30 986.90 L 770.80 969.30 L 763.40 952.10 L 760.30 943.40 L 755.20 925.40 L 751.60 907.10 L 749.60 888.60 L 749.10 869.90 L 749.50 860.60 Z M 815.00 937.40 L 815.70 941.10 L 818.20 948.10 L 820.90 953.00 L 824.10 957.60 L 831.50 965.90 L 836.80 970.60 L 842.40 974.80 L 848.40 978.60 L 854.60 981.90 L 861.00 984.80 L 867.60 987.30 L 881.20 991.10 L 889.70 992.70 L 891.30 992.60 L 894.10 991.20 L 896.10 988.80 L 897.00 985.80 L 896.30 982.50 L 895.50 981.10 L 892.80 979.00 L 891.20 978.40 L 882.90 976.60 L 876.20 974.80 L 869.60 972.60 L 863.20 970.00 L 857.10 966.80 L 851.30 963.20 L 847.10 960.20 L 839.60 953.20 L 832.80 944.80 L 827.30 935.30 L 820.40 920.30 L 818.70 922.80 L 816.00 928.40 L 815.20 931.30 L 814.80 934.30 L 815.00 937.40 Z" fill="#ffdc94" fill-rule="nonzero" node-id="155" stroke="none" target-height="245.5" target-width="248.20001" target-x="749.1" target-y="834.4"></path></g></svg>